<?xml version="1.0" encoding="UTF-8" standalone="no"?>
<svg
   viewBox="0 0 2340.6399 2873.3799"
   version="1.1"
   id="svg132"
   sodipodi:docname="logo4.svg"
   width="2340.6399"
   height="2873.3799"
   inkscape:version="1.2.2 (b0a8486541, 2022-12-01)"
   xml:space="preserve"
   inkscape:export-filename="logo4.png"
   inkscape:export-xdpi="96"
   inkscape:export-ydpi="96"
   xmlns:inkscape="http://www.inkscape.org/namespaces/inkscape"
   xmlns:sodipodi="http://sodipodi.sourceforge.net/DTD/sodipodi-0.dtd"
   xmlns="http://www.w3.org/2000/svg"
   xmlns:svg="http://www.w3.org/2000/svg"><sodipodi:namedview
     id="namedview134"
     pagecolor="#505050"
     bordercolor="#ffffff"
     borderopacity="1"
     inkscape:showpageshadow="0"
     inkscape:pageopacity="0"
     inkscape:pagecheckerboard="1"
     inkscape:deskcolor="#505050"
     showgrid="false"
     inkscape:zoom="0.1767767"
     inkscape:cx="2862.3682"
     inkscape:cy="1818.6786"
     inkscape:window-width="2512"
     inkscape:window-height="1011"
     inkscape:window-x="0"
     inkscape:window-y="0"
     inkscape:window-maximized="1"
     inkscape:current-layer="svg132" /><defs
     id="defs4"><style
       id="style2">.cls-1{fill:#dda90a;}.cls-2{fill:#932229;}.cls-3{fill:#dca80a;}.cls-4{fill:#020201;}.cls-5{fill:#df1818;}.cls-6{fill:#e33e28;}.cls-7{fill:#b41d1b;}.cls-8{fill:#922229;}.cls-9{fill:#902229;}.cls-10{fill:#fffefe;}.cls-11{fill:#fff;}</style></defs><g
     id="g337"
     transform="matrix(1.5227001,0,0,1.5227001,-9.0959284,16.6841)"><path
       class="cls-5"
       d="m 1387.0101,1391.2813 a 289.60756,289.60756 0 0 1 -101.0997,7.1797 314.73636,314.73636 0 0 1 -61.2775,-13.107 c -7.3467,-2.4211 -14.7768,-5.0926 -22.1234,-8.3485 l -7.5136,-3.0889 v 0 A 471.10274,471.10274 0 0 1 1049.399,1273.7352 v 0 a 862.56134,862.56134 0 0 1 -79.81113,-89.7457 c -2.25408,-2.922 -152.86002,-251.45522 -171.64403,-294.44973 0,0 0,0 0,0 -1.50272,-3.58983 -2.17058,-5.67694 -1.66969,-6.09436 -9.85116,-23.6261 -19.8693,-47.2522 -29.55349,-70.96178 C 725.7298,711.80138 690.08195,609.28247 659.02573,505.17738 652.59743,483.47142 646.08563,461.76546 639.65733,440.143 A 179.8255,179.8255 0 0 1 589.56665,370.93438 264.56222,264.56222 0 0 1 570.78266,289.28659 C 400.05696,390.97065 298.3729,537.48586 268.73593,733.84129 a 193.34998,193.34998 0 0 1 -45.99994,-91.24852 250.45336,250.45336 0 0 0 -37.40103,45.58252 c -57.01988,88.4935 -78.80932,187.50607 -86.406406,290.69285 -1.335753,18.28311 -1.502722,36.73316 -2.25408,56.93636 C 69.95945,1002.4107 57.603752,963.75745 41.908675,924.60325 21.705438,1000.6576 12.271695,1074.8753 20.202717,1151.347 a 486.88131,486.88131 0 0 0 83.484453,227.0777 c 52.51172,76.9727 121.72032,136.7475 197.27375,189.7602 a 781.91535,781.91535 0 0 0 139.50252,64.3665 957.56663,957.56663 0 0 0 189.42622,47.2522 c 22.95822,3.3394 46.1669,5.343 69.37556,7.0127 20.62066,1.5862 41.24134,1.1688 61.86199,1.5027 a 781.08052,781.08052 0 0 0 175.31735,-18.4501 835.84631,835.84631 0 0 0 203.95244,-71.7966 991.96223,991.96223 0 0 0 193.0995,-127.3138 c 33.8947,-28.6352 66.7877,-58.4391 97.5934,-90.0797 2.0037,-2.0871 3.7569,-4.5082 5.5934,-6.6787 v 0 c -16.2794,5.0925 -32.3919,12.94 -49.6732,17.2812 z m -922.08572,36.4828 h -0.50092 z m 4.75861,2.8384 c 0,0 -0.75136,0 -0.75136,0 a 8.348445,8.348445 0 0 1 0.66788,-1.1688 l 1.25226,0.9184 a 4.1742226,4.1742226 0 0 1 -1.16878,0.2504 z"
       id="path77"
       style="fill:#004aad;fill-opacity:1;stroke-width:8.34844" /><path
       class="cls-6"
       d="m 1449.7904,1363.8984 c -2.3376,4.1743 -7.2631,5.0926 -10.352,8.3485 l -1.9202,1.9201 v 0 h -0.5844 v 0 c -16.6968,5.0926 -32.7259,12.9401 -50.0906,17.2813 a 289.60756,289.60756 0 0 1 -101.0997,7.1796 314.73636,314.73636 0 0 1 -61.2776,-13.107 c -7.4301,-2.4211 -14.7767,-5.0925 -22.1234,-8.3484 l -7.5136,-3.089 A 472.27154,472.27154 0 0 1 1049.232,1273.9022 h -0.4173 a 862.56134,862.56134 0 0 1 -79.22683,-89.9127 c -2.25408,-2.922 -152.86002,-251.45522 -171.64403,-294.44973 0,0 0,0 0,0 -0.83483,-3.92375 -1.25225,-6.01086 -1.25225,-6.01086 -9.85117,-23.6261 -19.8693,-47.2522 -29.55351,-70.9618 Q 705.69352,661.54376 659.44315,505.26085 q -9.6842,-32.55893 -19.45188,-65.03438 c -1.00181,-25.96366 -2.75499,-51.92731 -3.00544,-77.97447 A 520.77599,520.77599 0 0 1 660.19451,190.85843 347.87971,347.87971 0 0 1 805.12351,5.5229448 c 1.41924,-0.9183289 2.83846,-1.669689 5.25952,-3.0054401 -2.58803,25.0453343 -5.343,50.0906703 -5.67694,74.2176763 a 654.26763,654.26763 0 0 0 9.1833,131.404519 176.82007,176.82007 0 0 0 77.30658,118.79838 c 21.45552,14.69326 42.32661,30.22136 63.03077,45.99991 a 213.46974,213.46974 0 0 1 71.79666,86.15597 c 0,-43.91282 3.1724,-87.40822 16.6968,-129.31741 a 268.31903,268.31903 0 0 1 71.9636,-109.61509 582.97192,582.97192 0 0 0 -4.0072,87.74215 c 2.7549,62.78031 25.0453,115.70945 75.136,156.03245 23.8766,19.28491 33.3937,46.66779 38.9038,75.63692 a 390.95769,390.95769 0 0 1 4.8421,101.60057 26.881993,26.881993 0 0 0 0.8348,8.76585 c 20.5372,-41.74221 35.9818,-86.99079 83.067,-108.52978 1.3357,3.00544 -0.6679,5.42649 -1.5862,7.93103 a 661.86471,661.86471 0 0 0 -35.8148,136.83101 c -7.3466,59.19047 -3.6734,116.87823 29.136,168.72207 a 169.64041,169.64041 0 0 0 34.2287,39.57163 c -2.588,-53.59701 0.5844,-105.35738 -9.4338,-156.70031 86.2395,104.85646 125.2267,228.74738 146.2648,362.57295 a 361.48767,361.48767 0 0 0 42.5771,-103.35373 c 13.107,129.06693 -6.5953,251.95603 -69.0417,366.91413 z"
       id="path79"
       style="fill:#0060e0;fill-opacity:1;stroke-width:8.34844" /><path
       class="cls-2"
       d="m 1439.3549,1372.1634 c 3.089,-3.2559 8.3485,-4.1742 10.4355,-8.3485 a 59.774866,59.774866 0 0 0 30.8893,-15.0271 c 3.1724,-2.4211 6.1779,-5.0091 10.2686,-8.3485 a 40.740413,40.740413 0 0 1 -6.5118,17.6987 719.71944,719.71944 0 0 1 -85.2376,124.3918 1109.3414,1109.3414 0 0 1 -297.6221,256.8817 836.09677,836.09677 0 0 1 -310.97959,109.0307 861.05862,861.05862 0 0 1 -212.38444,4.1742 c -133.57511,-14.7768 -256.79816,-57.8547 -365.41143,-138.8346 -4.2577,-3.1724 -8.34844,-7.0127 -11.93827,-10.5191 l 0.83484,-1.0853 a 531.12807,531.12807 0 0 0 73.71677,17.3648 565.02275,565.02275 0 0 0 63.19773,5.0091 28.551682,28.551682 0 0 0 -13.3575,-7.7642 653.68324,653.68324 0 0 1 -140.00343,-78.5588 373.92683,373.92683 0 0 1 -125.226679,-166.5515 60.526226,60.526226 0 0 1 -2.421049,-7.5136 c 0,-0.5008 0,-1.2522 0.751358,-2.254 a 110.53341,110.53341 0 0 1 20.871113,13.274 568.77955,568.77955 0 0 0 213.636697,94.0869 c 3.00544,0.5844 6.26134,3.1724 8.93283,-0.7513 a 782.33277,782.33277 0 0 0 139.50252,64.3666 954.47772,954.47772 0 0 0 189.42623,47.1686 c 22.87474,3.4229 46.08342,5.343 69.29209,7.0962 20.70415,1.5028 41.24131,1.0853 61.94547,1.5028 a 781.16399,781.16399 0 0 0 175.31733,-18.5336 833.59222,833.59222 0 0 0 203.95251,-71.7966 985.11651,985.11651 0 0 0 193.0161,-127.3138 q 50.9255,-42.8276 97.6768,-90.0797 a 88.159578,88.159578 0 0 0 5.6769,-6.8458 v 0 z"
       id="path81"
       style="fill:#00347a;fill-opacity:1;stroke-width:8.34844" /><path
       class="cls-6"
       d="m 1437.1008,1374.0001 v 0 c -16.6969,5.176 -32.3085,12.94 -49.4228,17.1978 a 289.85801,289.85801 0 0 1 -101.5171,7.0961 289.60756,289.60756 0 0 0 101.0996,-7.1796 c 17.0309,-4.1743 33.1434,-12.0218 49.8403,-17.1143 z"
       id="path83"
       style="fill:#578fca;fill-opacity:1;stroke-width:8.34844" /><path
       class="cls-7"
       d="m 200.86307,1703.4297 -2.1706,-1.6697 c 1.25227,-1.1688 2.1706,-0.5844 3.00544,0.6679 z"
       id="path85"
       style="fill:#578fca;fill-opacity:1;stroke-width:8.34844" /><path
       class="cls-8"
       d="m 318.40917,1451.5571 a 190.42803,190.42803 0 0 1 -48.00356,-31.9745 448.56194,448.56194 0 0 1 -142.42447,-210.047 511.34225,511.34225 0 0 1 -18.28309,-85.9055 c -0.75136,-6.0108 -1.41924,-12.4391 5.67694,-15.5281 7.09618,-3.0889 13.27403,1.2523 14.19235,10.2686 a 518.10449,518.10449 0 0 0 15.36115,89.5789 428.27523,428.27523 0 0 0 87.24124,163.88 467.51291,467.51291 0 0 0 83.48446,77.39 c 1.00181,0.6679 1.92013,1.5863 2.75498,2.3376 z"
       id="path87"
       style="fill:#ffffff;fill-opacity:1;stroke-width:8.34844" /><path
       class="cls-8"
       d="m 461.16757,1426.6787 a 221.81818,221.81818 0 0 1 -36.73314,-19.7023 335.85793,335.85793 0 0 1 -145.0125,-190.762 50.09067,50.09067 0 0 1 -1.66969,-5.7604 c -1.0018,-6.3448 0.66788,-11.6878 7.5136,-13.1906 6.84573,-1.5027 10.7695,2.3376 12.27222,8.3485 a 359.56754,359.56754 0 0 0 19.45188,59.7749 326.17375,326.17375 0 0 0 134.99436,152.9435 c 2.83847,1.9201 7.09616,2.6715 9.18327,8.3484 z"
       id="path89"
       style="fill:#ffffff;fill-opacity:1;stroke-width:8.34844" /><path
       class="cls-2"
       d="m 383.61053,820.7486 a 200.36268,200.36268 0 0 1 -9.43376,-60.69319 298.28993,298.28993 0 0 1 46.66782,-178.90718 c 5.4265,-8.34846 11.68782,-16.19599 17.61522,-24.29399 4.25771,-5.7604 10.10163,-9.01632 16.11249,-3.92376 6.01088,5.09254 4.09074,11.77132 -1.08528,17.44826 a 270.5731,270.5731 0 0 0 -66.78758,131.32103 330.59841,330.59841 0 0 0 -3.92375,110.28295 c 0.83484,2.92196 0.66786,5.92742 0.83484,8.76588 z"
       id="path91"
       style="fill:#ffffff;fill-opacity:1;stroke-width:8.34844" /><path
       class="cls-2"
       d="m 684.82242,1593.4806 c -82.14869,8.9329 -153.36093,-17.1978 -217.05957,-67.4554 -5.84391,-4.5916 -8.34845,-10.352 -2.6715,-16.1959 5.67694,-5.8439 11.2704,-3.7568 16.69688,1.2522 a 300.96144,300.96144 0 0 0 103.35376,65.1179 280.92518,280.92518 0 0 0 99.68043,17.2812 z"
       id="path93"
       style="fill:#ffffff;fill-opacity:1;stroke-width:8.34844" /><path
       class="cls-8"
       d="m 241.26953,1037.7246 a 259.55317,259.55317 0 0 1 -31.39014,-79.47711 330.43144,330.43144 0 0 1 -8.34845,-89.24488 c 0,-7.34663 1.0853,-13.94191 10.35207,-13.77493 9.26678,0.16703 10.60253,7.34663 9.60072,14.35932 a 321.58211,321.58211 0 0 0 20.20325,163.713 21.20505,21.20505 0 0 1 0.58439,3.9238 z"
       id="path95"
       style="fill:#ffffff;fill-opacity:1;stroke-width:8.34844" /><path
       class="cls-8"
       d="m 369.58514,1011.6775 a 141.92356,141.92356 0 0 1 -43.99631,-86.23941 9.9346496,9.9346496 0 0 1 9.1833,-12.94008 9.5172272,9.5172272 0 0 1 10.76949,10.51903 147.0996,147.0996 0 0 0 23.96002,85.15406 8.348445,8.348445 0 0 1 0.66789,2.922 z"
       id="path97"
       style="fill:#ffffff;fill-opacity:1;stroke-width:8.34844" /><path
       class="cls-2"
       d="m 1150.3317,1501.7312 a 7.3466315,7.3466315 0 0 1 6.3448,-3.8402 l 0.5844,0.5844 a 8.7658672,8.7658672 0 0 1 -5.9274,4.1742 z"
       id="path99"
       style="fill:#578fca;fill-opacity:1;stroke-width:8.34844" /><path
       class="cls-8"
       d="m 469.68299,1428.6823 1.25227,1.0019 a 4.5916446,4.5916446 0 0 1 -1.25227,0.6679 c 0,0 -0.66787,0 -0.66787,-0.4175 a 9.099805,9.099805 0 0 1 0.66787,-1.2523 z"
       id="path101"
       style="fill:#578fca;fill-opacity:1;stroke-width:8.34844" /><path
       class="cls-8"
       d="m 241.85392,1037.2238 1.25228,2.254 c 0,0 0,0.4175 -0.66787,0.5844 -0.66788,0.1671 -0.75135,-1.5027 -1.1688,-2.3376 z"
       id="path103"
       style="fill:#578fca;fill-opacity:1;stroke-width:8.34844" /><polygon
       class="cls-8"
       points="139.49,236.98 139.56,236.96 139.56,237.01 "
       id="polygon105"
       style="fill:#578fca;fill-opacity:1"
       transform="matrix(8.348445,0,0,8.348445,-700.10112,-551.23484)" /><path
       class="cls-8"
       d="m 371.75572,1013.4307 0.91834,0.9183 h -0.58439 c 0,0 0,-0.5009 -0.41742,-0.7513 z"
       id="path107"
       style="fill:#578fca;fill-opacity:1;stroke-width:8.34844" /><path
       class="cls-8"
       d="m 370.16953,1011.0931 1.58619,2.3376 v 0 l -2.0871,-1.8366 z"
       id="path109"
       style="fill:#578fca;fill-opacity:1;stroke-width:8.34844" /><path
       class="cls-2"
       d="m 1159.348,1496.6387 -2.0871,1.8367 -0.5844,-0.5844 2.1706,-1.7532 z"
       id="path111"
       style="fill:#578fca;fill-opacity:1;stroke-width:8.34844" /><path
       class="cls-2"
       d="m 1158.8471,1496.1378 1.2523,-0.7514 -0.7514,1.2523 z"
       id="path113"
       style="fill:#578fca;fill-opacity:1;stroke-width:8.34844" /><path
       class="cls-5"
       d="m 1439.3549,1372.1634 -1.9201,1.8367 z"
       id="path115"
       style="fill:#578fca;fill-opacity:1;stroke-width:8.34844" /><path
       class="cls-9"
       d="m 851.45738,1766.8779 a 374.01034,374.01034 0 0 1 -66.11967,13.8584 709.03343,709.03343 0 0 1 -109.53162,6.9292 924.75724,924.75724 0 0 1 -100.76574,-4.4247 c -38.31934,-4.5916 -76.63871,-8.3484 -114.62414,-16.029 -7.76405,-1.5027 -11.7713,-4.9256 -10.35206,-12.6062 1.41923,-7.6805 8.34845,-8.3484 14.86023,-7.0127 a 1171.0363,1171.0363 0 0 0 125.72758,22.8748 1043.5556,1043.5556 0 0 0 150.27202,6.5117 604.00999,604.00999 0 0 0 103.43723,-9.6841 45.665994,45.665994 0 0 1 7.09617,-0.4174 z"
       id="path117"
       style="fill:#fffefe;fill-opacity:1;stroke-width:8.34844" /><path
       class="cls-9"
       d="m 406.65223,1679.9705 a 218.06137,218.06137 0 0 1 -52.76216,-7.9309 339.69822,339.69822 0 0 1 -129.48439,-60.2758 204.70387,204.70387 0 0 1 -20.20324,-17.8657 c -4.67513,-4.6751 -7.93102,-10.7695 -1.66969,-16.6969 6.26134,-5.9274 10.85298,-2.5045 15.52811,2.5046 51.00899,55.6005 116.04338,84.5697 188.59137,100.2647 z"
       id="path119"
       style="fill:#fffefe;fill-opacity:1;stroke-width:8.34844" /><path
       class="cls-2"
       d="m 1151.3335,1502.4826 a 263.81086,263.81086 0 0 1 -68.2068,37.0671 523.03008,523.03008 0 0 1 -148.26836,34.813 843.86082,843.86082 0 0 1 -84.73671,3.5064 65.535294,65.535294 0 0 1 -7.01269,0 c -6.84573,-0.7514 -13.02359,-3.2559 -12.3557,-11.3539 0.66787,-8.098 6.4283,-10.2686 13.69144,-9.7677 16.69689,1.1688 32.55894,3.089 48.8384,3.2559 70.12694,0 138.83472,-8.3484 204.70382,-33.3938 18.0327,-7.0127 34.8966,-16.6969 52.3448,-25.0453 z"
       id="path121"
       style="fill:#ffffff;fill-opacity:1;stroke-width:8.34844" /><path
       class="cls-10"
       d="m 947.38102,1034.9697 c -4.25771,-2.6715 -6.26134,-1.5862 -8.34846,2.1706 -7.43011,11.1869 -15.11069,22.1234 -23.45913,34.3121 -20.37019,-36.0653 -39.82206,-70.6279 -59.35745,-105.10692 -1.25225,-2.17061 -2.17058,-4.17422 0.41745,-6.01088 l 29.9709,-20.70416 a 77.306599,77.306599 0 0 1 1.50273,12.68964 c -0.58439,9.09982 3.33937,11.18693 12.10523,11.01996 38.40285,-0.50091 76.8057,0 115.20851,0 h 19.5354 l -41.74222,57.43726 c 18.95092,2.4211 36.39922,4.2578 53.76402,6.8458 6.9292,1.0017 8.3484,-0.9184 7.764,-7.5971 -3.2559,-35.89833 -7.2631,-71.71317 -8.3484,-107.69497 a 81.98173,81.98173 0 0 0 -22.2069,-50.9255 291.19376,291.19376 0 0 0 -91.83288,-69.45908 16.69689,16.69689 0 0 0 -21.03809,1.83666 C 873.49728,823.83752 835.2614,853.391 797.10901,883.19496 l -19.53536,16.1125 c -37.48453,-31.55712 -77.13963,-62.19591 -115.95991,-91.8329 -8.93284,-6.84572 -17.1978,-18.53355 -27.46638,-18.61702 -10.26858,-0.0834 -20.37021,8.76586 -30.13788,14.35932 a 293.61482,293.61482 0 0 0 -97.76029,82.73308 29.052588,29.052588 0 0 0 -5.59347,17.53174 c 0,38.73679 -0.41742,77.47358 0,116.12682 a 15.361139,15.361139 0 0 1 -6.76225,14.1924 936.44506,936.44506 0 0 0 -76.97265,63.7821 14.693263,14.693263 0 0 0 -6.67876,11.6044 142.50795,142.50795 0 0 0 17.19781,72.047 c 23.96004,40.8239 62.44636,58.4391 107.11053,64.7839 8.34844,1.1688 8.34844,3.0055 4.50817,9.1834 -14.10886,24.5444 -27.80033,49.3393 -41.74224,74.0507 -1.08527,2.0871 -3.75677,3.9237 -2.17057,6.9292 h 104.77297 c -1.0853,-2.8385 -1.83666,-5.2595 -2.83847,-7.6806 -10.51905,-25.0453 -19.53535,-50.0906 -31.89106,-74.3012 -9.43375,-18.0326 -8.84934,-31.1397 7.17966,-44.2467 a 227.16118,227.16118 0 0 0 22.95823,-25.0453 l 15.0272,-16.6969 a 15.194169,15.194169 0 0 1 -2.33756,10.853 c -7.09619,16.6968 -14.19235,33.3937 -21.62246,49.3393 a 11.520854,11.520854 0 0 0 1.16877,13.6079 c 18.95096,25.0453 37.56799,50.0907 56.10154,75.136 2.83847,3.8403 4.75863,5.0091 9.43374,2.2541 q 52.92915,-32.225 106.44267,-63.5316 a 9.6007116,9.6007116 0 0 0 5.09256,-9.6843 417.42224,417.42224 0 0 1 0,-49.0053 c 1.92014,-20.1198 -7.68058,-33.3938 -21.37201,-45.7495 -22.03989,-19.3684 -49.17235,-26.0472 -77.22312,-29.3865 -8.84935,-1.0854 -8.34844,-4.0073 -6.17785,-10.6861 7.76405,-20.7876 24.21049,-31.9745 43.74585,-39.655 a 228.91437,228.91437 0 0 1 73.0489,-12.2723 c 26.63154,1.3357 55.01625,3.2559 79.89461,14.2759 a 66.036199,66.036199 0 0 1 38.82028,37.9854 c 2.25406,6.0943 2.83847,10.2686 -5.84391,10.1017 a 66.286654,66.286654 0 0 0 -13.85844,2.087 c -27.2994,5.1761 -52.84564,14.0254 -71.96358,35.6478 a 44.580697,44.580697 0 0 0 -13.35752,34.1453 475.86137,475.86137 0 0 1 0,50.0906 13.107059,13.107059 0 0 0 7.51361,13.441 c 30.80576,17.9492 61.27758,36.3992 91.83287,54.5988 17.86569,10.6861 35.89833,21.2886 55.09976,32.6425 0,-6.5954 0,-11.5209 0,-16.6969 q -1.33575,-65.9528 -2.6715,-132.0724 c -0.50092,-21.8729 -0.50092,-21.8729 22.29035,-22.3739 a 6.7622404,6.7622404 0 0 1 2.588,-1.2522 l 120.96905,-16.6969 38.1523,-5.5935 c -60.9436,-38.9037 -119.8837,-76.6387 -178.74018,-114.7911 z M 692.58647,976.53056 c -18.61702,30.72234 -38.0689,60.94364 -58.43911,92.83474 -9.43374,-16.6969 -18.11613,-30.8892 -26.21413,-45.7495 a 10.268587,10.268587 0 0 0 -10.93644,-6.1778 c -12.9401,0 -27.71684,4.4247 -38.31938,-1.5027 -10.60252,-5.9275 -16.11248,-19.03452 -23.79306,-29.13613 -5.76042,-7.51361 -11.43736,-15.19418 -17.36477,-23.04172 a 20.537175,20.537175 0 0 1 11.52086,-1.41924 c 41.74222,0 82.81657,0 124.22485,0 8.34845,0 12.3557,-1.75317 10.853,-10.85297 a 88.910939,88.910939 0 0 1 0,-12.68963 132.40634,132.40634 0 0 1 27.96727,15.19416 18.867485,18.867485 0 0 1 0.50091,22.54079 z"
       id="path124"
       style="stroke-width:8.34844" /><path
       class="cls-11"
       d="m 910.64785,1433.608 a 43.829337,43.829337 0 0 1 -14.69325,20.9545 14.025387,14.025387 0 0 1 -22.45732,-2.6715 109.19766,109.19766 0 0 1 -18.95097,-37.0671 c -0.66788,-1.8366 -0.58439,-4.0072 -3.42286,-5.0925 -7.84754,43.078 -27.21593,78.8093 -68.79118,97.1759 a 38.48633,38.48633 0 0 1 -5.76044,2.1706 30.889247,30.889247 0 0 1 -3.33937,-1.3357 c -35.64787,-14.9438 -55.01625,-43.8294 -64.95091,-80.0616 -1.66969,-6.0944 -3.00544,-12.2723 -4.75861,-19.6189 -3.33939,8.3484 -6.09436,15.6116 -9.0998,22.7913 a 79.978104,79.978104 0 0 1 -11.60436,19.7857 c -8.34844,10.5191 -15.94552,11.0201 -26.04713,1.7532 a 55.517159,55.517159 0 0 1 -15.27766,-28.6351 190.92894,190.92894 0 0 1 -5.25952,-55.5172 c 0,-3.0054 0,-5.6769 3.58983,-7.4301 l 136.33011,-72.8819 c 1.5862,-2.2541 2.83847,-1.0019 4.09074,0 q 66.78755,35.9818 133.57512,71.7131 a 8.348445,8.348445 0 0 1 5.09254,7.6805 174.81643,174.81643 0 0 1 -8.26496,66.2868 z"
       id="path126"
       style="stroke-width:8.34844" /></g></svg>
