<?xml version="1.0" encoding="UTF-8" standalone="no"?>
<svg
   viewBox="0 0 2340.6399 2873.3799"
   version="1.1"
   id="svg132"
   sodipodi:docname="logo6.svg"
   width="2340.6399"
   height="2873.3799"
   inkscape:version="1.2.2 (b0a8486541, 2022-12-01)"
   xml:space="preserve"
   inkscape:export-filename="logo6.png"
   inkscape:export-xdpi="96"
   inkscape:export-ydpi="96"
   xmlns:inkscape="http://www.inkscape.org/namespaces/inkscape"
   xmlns:sodipodi="http://sodipodi.sourceforge.net/DTD/sodipodi-0.dtd"
   xmlns="http://www.w3.org/2000/svg"
   xmlns:svg="http://www.w3.org/2000/svg"><sodipodi:namedview
     id="namedview134"
     pagecolor="#505050"
     bordercolor="#ffffff"
     borderopacity="1"
     inkscape:showpageshadow="0"
     inkscape:pageopacity="0"
     inkscape:pagecheckerboard="1"
     inkscape:deskcolor="#505050"
     showgrid="false"
     inkscape:zoom="0.1767767"
     inkscape:cx="2879.3387"
     inkscape:cy="1846.9629"
     inkscape:window-width="2512"
     inkscape:window-height="1011"
     inkscape:window-x="0"
     inkscape:window-y="0"
     inkscape:window-maximized="1"
     inkscape:current-layer="svg132" /><defs
     id="defs4"><style
       id="style2">.cls-1{fill:#dda90a;}.cls-2{fill:#932229;}.cls-3{fill:#dca80a;}.cls-4{fill:#020201;}.cls-5{fill:#df1818;}.cls-6{fill:#e33e28;}.cls-7{fill:#b41d1b;}.cls-8{fill:#922229;}.cls-9{fill:#902229;}.cls-10{fill:#fffefe;}.cls-11{fill:#fff;}</style></defs><path
     class="cls-5"
     d="m 2102.9045,2135.1883 a 440.98546,440.98546 0 0 1 -153.9445,10.9325 479.24909,479.24909 0 0 1 -93.3073,-19.958 c -11.1868,-3.6866 -22.5006,-7.7545 -33.6873,-12.7123 l -11.441,-4.7035 v 0 A 717.34819,717.34819 0 0 1 1588.824,1956.2008 v 0 A 1313.4222,1313.4222 0 0 1 1467.2956,1819.545 c -3.4323,-4.4493 -232.7599,-382.8909 -261.3624,-448.3586 0,0 0,0 0,0 -2.2882,-5.4662 -3.3051,-8.6443 -2.5424,-9.2799 -15.0004,-35.9755 -30.255,-71.9509 -45.0011,-108.0535 -62.4168,-153.3089 -116.6978,-309.41442 -163.98708,-467.93525 -9.78838,-33.05167 -19.70389,-66.10334 -29.49227,-99.02786 A 273.82031,273.82031 0 0 1 888.63727,581.50592 402.84892,402.84892 0 0 1 860.03489,457.18082 C 600.07084,612.01515 445.23652,835.11387 400.1083,1134.1043 a 294.41403,294.41403 0 0 1 -70.04411,-138.94412 381.36536,381.36536 0 0 0 -56.95056,69.40852 c -86.82417,134.749 -120.00296,285.5155 -131.57104,442.638 -2.03395,27.8397 -2.28819,55.9336 -3.43229,86.697 C 97.431333,1543.055 78.617311,1484.1977 54.718415,1424.5776 23.954944,1540.3855 9.5901828,1653.3968 21.666751,1769.8403 a 741.37422,741.37422 0 0 0 127.121789,345.7712 c 79.9596,117.2064 185.34354,208.2255 300.38875,288.9479 a 1190.6226,1190.6226 0 0 0 212.42051,98.0109 1458.0868,1458.0868 0 0 0 288.43932,71.9509 c 34.95848,5.0849 70.29838,8.1358 105.63818,10.6782 31.3991,2.4154 62.7982,1.7798 94.1973,2.2882 a 1189.3514,1189.3514 0 0 0 266.9557,-28.094 1272.7433,1272.7433 0 0 0 310.5584,-109.3246 1510.461,1510.461 0 0 0 294.0326,-193.8608 c 51.6115,-43.6028 101.6977,-88.9852 148.6055,-137.1644 3.051,-3.178 5.7206,-6.8646 8.5171,-10.1696 v 0 c -24.7887,7.7543 -49.3232,19.7037 -75.6374,26.3141 z m -1404.06003,55.5523 h -0.76275 z m 7.24594,4.3221 c 0,0 -1.1441,0 -1.1441,0 a 12.712178,12.712178 0 0 1 1.01698,-1.7798 l 1.90682,1.3985 a 6.3560892,6.3560892 0 0 1 -1.7797,0.3813 z"
     id="path77"
     style="fill:#3a0647;fill-opacity:1;stroke-width:12.7122" /><path
     class="cls-6"
     d="m 2198.5001,2093.4923 c -3.5595,6.3562 -11.0596,7.7545 -15.763,12.7123 l -2.9239,2.9237 v 0 h -0.8899 v 0 c -25.4242,7.7545 -49.8317,19.7039 -76.2729,26.3143 a 440.98546,440.98546 0 0 1 -153.9446,10.9323 479.24909,479.24909 0 0 1 -93.3074,-19.958 c -11.3138,-3.6866 -22.5005,-7.7543 -33.6873,-12.7121 l -11.4409,-4.7036 a 719.12792,719.12792 0 0 1 -221.7005,-152.5461 h -0.6354 A 1313.4222,1313.4222 0 0 1 1467.2956,1819.545 c -3.4323,-4.4493 -232.7599,-382.8909 -261.3624,-448.3586 0,0 0,0 0,0 -1.2712,-5.9747 -1.9068,-9.1527 -1.9068,-9.1527 -15.0003,-35.9755 -30.2549,-71.951 -45.0011,-108.0536 Q 1065.4637,1024.0168 995.03822,786.04485 980.29209,736.46736 965.41884,687.01699 c -1.52545,-39.53487 -4.19502,-79.06972 -4.57638,-118.73173 A 792.98565,792.98565 0 0 1 996.18232,307.30425 529.71647,529.71647 0 0 1 1216.8657,25.093889 c 2.1611,-1.39834 4.3221,-2.542436 8.0087,-4.576384 -3.9408,38.136533 -8.1358,76.273068 -8.6443,113.011265 a 996.25339,996.25339 0 0 0 13.9834,200.08967 269.24394,269.24394 0 0 0 117.7148,180.89431 c 32.6703,22.37343 64.4507,46.01807 95.9769,70.04406 A 325.05039,325.05039 0 0 1 1553.23,715.74652 c 0,-66.86606 4.8306,-133.09651 25.4242,-196.91163 a 408.56941,408.56941 0 0 1 109.579,-166.91091 887.6914,887.6914 0 0 0 -6.1018,133.60498 c 4.1949,95.59558 38.1365,176.19079 114.4096,237.59062 36.3569,29.36514 50.8486,71.06105 59.2389,115.17235 a 595.31131,595.31131 0 0 1 7.373,154.7072 40.933213,40.933213 0 0 0 1.2712,13.34777 c 31.272,-63.56088 54.7895,-132.4609 126.4861,-165.25832 2.0339,4.57639 -1.017,8.26292 -2.4153,12.07658 a 1007.8215,1007.8215 0 0 0 -54.5352,208.35264 c -11.1867,90.1293 -5.5935,177.9704 44.3654,256.9131 a 258.31147,258.31147 0 0 0 52.12,60.2557 c -3.9407,-81.6122 0.8899,-160.4277 -14.3648,-238.6076 131.3169,159.665 190.6827,348.3137 222.7174,552.0899 a 550.43731,550.43731 0 0 0 64.8322,-157.3768 c 19.958,196.5303 -10.0427,383.6535 -105.1298,558.7002 z"
     id="path79"
     style="fill:#540a5d;fill-opacity:1;stroke-width:12.7122" /><path
     class="cls-2"
     d="m 2182.6099,2106.0774 c 4.7036,-4.9577 12.7123,-6.356 15.8902,-12.7122 a 91.019194,91.019194 0 0 0 47.0351,-22.8818 c 4.8306,-3.6866 9.4071,-7.6273 15.636,-12.7122 a 62.035431,62.035431 0 0 1 -9.9155,26.9498 1095.9169,1095.9169 0 0 1 -129.7913,189.4114 1689.1943,1689.1943 0 0 1 -453.1892,391.1538 1273.1246,1273.1246 0 0 1 -473.5287,166.021 1311.134,1311.134 0 0 1 -323.39779,6.3561 c -203.39483,-22.5007 -391.02658,-88.0954 -556.41202,-211.4035 -6.4832,-4.8306 -12.71217,-10.6782 -18.1784,-16.0174 l 1.27121,-1.6526 a 808.74877,808.74877 0 0 0 112.24853,26.4414 860.3602,860.3602 0 0 0 96.23119,7.6273 43.475649,43.475649 0 0 0 -20.33946,-11.8225 995.36353,995.36353 0 0 1 -213.18324,-119.6215 569.37842,569.37842 0 0 1 -190.682678,-253.608 92.16329,92.16329 0 0 1 -3.686531,-11.4409 c 0,-0.7626 0,-1.9068 1.144092,-3.4322 a 168.30923,168.30923 0 0 1 31.780447,20.2123 866.08068,866.08068 0 0 0 325.30462,143.2661 c 4.57638,0.8899 9.53414,4.8307 13.60202,-1.144 a 1191.2582,1191.2582 0 0 0 212.4205,98.0111 1453.3833,1453.3833 0 0 0 288.43934,71.8236 c 34.83137,5.212 70.17127,8.1358 105.51107,10.8054 31.5262,2.2883 62.7982,1.6526 94.3244,2.2883 a 1189.4785,1189.4785 0 0 0 266.9557,-28.2211 1269.311,1269.311 0 0 0 310.5585,-109.3247 1500.037,1500.037 0 0 0 293.9056,-193.8607 q 77.5443,-65.2136 148.7325,-137.1644 a 134.2406,134.2406 0 0 0 8.6442,-10.4241 v 0 z"
     id="path81"
     style="fill:#590e5e;fill-opacity:1;stroke-width:12.7122" /><path
     class="cls-6"
     d="m 2179.1776,2108.8742 v 0 c -25.4244,7.8815 -49.1962,19.7037 -75.2561,26.1871 a 441.36682,441.36682 0 0 1 -154.5801,10.8052 440.98546,440.98546 0 0 0 153.9444,-10.9324 c 25.9329,-6.3562 50.4674,-18.3056 75.8918,-26.0599 z"
     id="path83"
     style="fill:#578fca;fill-opacity:1;stroke-width:12.7122" /><path
     class="cls-7"
     d="m 296.75829,2610.4967 -3.30517,-2.5425 c 1.90683,-1.7797 3.30517,-0.8898 4.57638,1.017 z"
     id="path85"
     style="fill:#578fca;fill-opacity:1;stroke-width:12.7122" /><path
     class="cls-8"
     d="M 475.74575,2226.9702 A 289.96478,289.96478 0 0 1 402.65072,2178.2827 683.02531,683.02531 0 0 1 185.78097,1858.4441 778.6209,778.6209 0 0 1 157.9413,1727.6358 c -1.14409,-9.1527 -2.16107,-18.9411 8.64428,-23.6447 10.80535,-4.7034 20.21237,1.9069 21.61069,15.636 a 788.91776,788.91776 0 0 0 23.39043,136.4018 652.13474,652.13474 0 0 0 132.84224,249.5401 711.88195,711.88195 0 0 0 127.1218,117.8418 c 1.52545,1.017 2.92378,2.4154 4.19501,3.5594 z"
     id="path87"
     style="fill:#ffffff;fill-opacity:1;stroke-width:12.7122" /><path
     class="cls-8"
     d="m 693.12398,2189.0879 a 337.76256,337.76256 0 0 1 -55.93356,-30.0007 511.4109,511.4109 0 0 1 -220.81055,-290.4733 76.273068,76.273068 0 0 1 -2.54243,-8.7714 c -1.52545,-9.6612 1.01698,-17.797 11.44095,-20.0853 10.424,-2.2882 16.39872,3.5595 18.68692,12.7123 a 547.51353,547.51353 0 0 0 29.61937,91.0192 496.6648,496.6648 0 0 0 205.55593,232.8871 c 4.32214,2.9237 10.80532,4.0679 13.98337,12.7121 z"
     id="path89"
     style="fill:#ffffff;fill-opacity:1;stroke-width:12.7122" /><path
     class="cls-2"
     d="m 575.02786,1266.4381 a 305.09227,305.09227 0 0 1 -14.36478,-92.4176 454.20611,454.20611 0 0 1 71.06109,-272.42193 c 8.26293,-12.7122 17.79705,-24.66164 26.8227,-36.99246 6.48321,-8.77136 15.38175,-13.72915 24.53449,-5.97471 9.15277,7.75441 6.22897,17.92419 -1.65256,26.56846 a 412.00169,412.00169 0 0 0 -101.69745,199.96254 503.40223,503.40223 0 0 0 -5.9747,167.9279 c 1.27121,4.4492 1.01695,9.0257 1.27121,13.3478 z"
     id="path91"
     style="fill:#ffffff;fill-opacity:1;stroke-width:12.7122" /><path
     class="cls-2"
     d="m 1033.6832,2443.0772 c -125.08778,13.6021 -233.52266,-26.1871 -330.51659,-102.7144 -8.89852,-6.9916 -12.71219,-15.763 -4.06789,-24.6615 8.64427,-8.8985 17.16144,-5.7205 25.42434,1.9068 a 458.27401,458.27401 0 0 0 157.37678,99.155 427.7648,427.7648 0 0 0 151.78336,26.3141 z"
     id="path93"
     style="fill:#ffffff;fill-opacity:1;stroke-width:12.7122" /><path
     class="cls-8"
     d="m 358.28521,1596.8275 a 395.22164,395.22164 0 0 1 -47.79777,-121.0199 503.14799,503.14799 0 0 1 -12.71219,-135.8931 c 0,-11.1868 1.65259,-21.2294 15.7631,-20.9751 14.11053,0.2543 16.14448,11.1867 14.61902,21.8649 a 489.67311,489.67311 0 0 0 30.76349,249.2858 32.288932,32.288932 0 0 1 0.88985,5.9748 z"
     id="path95"
     style="fill:#ffffff;fill-opacity:1;stroke-width:12.7122" /><path
     class="cls-8"
     d="m 553.6714,1557.1655 a 216.10702,216.10702 0 0 1 -66.99318,-131.3167 15.127492,15.127492 0 0 1 13.98341,-19.7039 14.491883,14.491883 0 0 1 16.3987,16.0173 223.98858,223.98858 0 0 0 36.48393,129.6641 12.712178,12.712178 0 0 1 1.01699,4.4494 z"
     id="path97"
     style="fill:#ffffff;fill-opacity:1;stroke-width:12.7122" /><path
     class="cls-2"
     d="m 1742.5143,2303.3703 a 11.186717,11.186717 0 0 1 9.6612,-5.8474 l 0.8899,0.8898 a 13.347787,13.347787 0 0 1 -9.0257,6.3561 z"
     id="path99"
     style="fill:#578fca;fill-opacity:1;stroke-width:12.7122" /><path
     class="cls-8"
     d="m 706.09041,2192.1388 1.90683,1.5256 a 6.9916977,6.9916977 0 0 1 -1.90683,1.017 c 0,0 -1.01697,0 -1.01697,-0.6357 a 13.856274,13.856274 0 0 1 1.01697,-1.9069 z"
     id="path101"
     style="fill:#578fca;fill-opacity:1;stroke-width:12.7122" /><path
     class="cls-8"
     d="m 359.17506,1596.0649 1.90685,3.4322 c 0,0 0,0.6357 -1.01697,0.8898 -1.01698,0.2545 -1.14408,-2.2881 -1.77973,-3.5594 z"
     id="path103"
     style="fill:#578fca;fill-opacity:1;stroke-width:12.7122" /><polygon
     class="cls-8"
     points="139.56,237.01 139.49,236.98 139.56,236.96 "
     id="polygon105"
     style="fill:#578fca;fill-opacity:1"
     transform="matrix(12.712178,0,0,12.712178,-1075.14,-822.68125)" /><path
     class="cls-8"
     d="m 556.97654,1559.8351 1.39836,1.3983 h -0.88985 c 0,0 0,-0.7627 -0.63561,-1.144 z"
     id="path107"
     style="fill:#578fca;fill-opacity:1;stroke-width:12.7122" /><path
     class="cls-8"
     d="m 554.56125,1556.2757 2.41529,3.5594 v 0 l -3.17802,-2.7966 z"
     id="path109"
     style="fill:#578fca;fill-opacity:1;stroke-width:12.7122" /><path
     class="cls-2"
     d="m 1756.2434,2295.616 -3.178,2.7967 -0.8899,-0.8898 3.3052,-2.6696 z"
     id="path111"
     style="fill:#578fca;fill-opacity:1;stroke-width:12.7122" /><path
     class="cls-2"
     d="m 1755.4807,2294.8533 1.9068,-1.1442 -1.1441,1.9069 z"
     id="path113"
     style="fill:#578fca;fill-opacity:1;stroke-width:12.7122" /><path
     class="cls-5"
     d="m 2182.6099,2106.0774 -2.9237,2.7968 z"
     id="path115"
     style="fill:#578fca;fill-opacity:1;stroke-width:12.7122" /><path
     class="cls-9"
     d="m 1287.4183,2707.1093 a 569.50558,569.50558 0 0 1 -100.6804,21.1021 1079.6453,1079.6453 0 0 1 -166.7838,10.5511 1408.1279,1408.1279 0 0 1 -153.43603,-6.7375 c -58.34886,-6.9916 -116.69777,-12.7121 -174.53819,-24.4073 -11.82232,-2.2882 -17.92416,-7.5002 -15.76308,-19.1955 2.16106,-11.6951 12.71218,-12.7121 22.62767,-10.6782 a 1783.1371,1783.1371 0 0 0 191.4454,34.8314 1589.0222,1589.0222 0 0 0 228.81923,9.9154 919.72607,919.72607 0 0 0 157.5039,-14.746 69.535614,69.535614 0 0 1 10.8053,-0.6355 z"
     id="path117"
     style="fill:#fffefe;fill-opacity:1;stroke-width:12.7122" /><path
     class="cls-9"
     d="m 610.11346,2574.7753 a 332.04207,332.04207 0 0 1 -80.34094,-12.0763 517.25851,517.25851 0 0 1 -197.1659,-91.782 311.7026,311.7026 0 0 1 -30.76347,-27.2041 c -7.11882,-7.1188 -12.07657,-16.3987 -2.54244,-25.4244 9.53414,-9.0256 16.52583,-3.8136 23.64465,3.8138 77.6714,84.6629 176.69927,128.7743 287.1681,152.673 z"
     id="path119"
     style="fill:#fffefe;fill-opacity:1;stroke-width:12.7122" /><path
     class="cls-2"
     d="m 1744.0397,2304.5145 a 401.70482,401.70482 0 0 1 -103.8585,56.4421 796.41796,796.41796 0 0 1 -225.7682,53.0097 1284.947,1284.947 0 0 1 -129.0286,5.3392 99.790599,99.790599 0 0 1 -10.6783,0 c -10.424,-1.1441 -19.831,-4.9577 -18.814,-17.2885 1.017,-12.3309 9.7884,-15.636 20.848,-14.8733 25.4243,1.7797 49.5775,4.7036 74.3662,4.9577 106.7823,0 211.4036,-12.7121 311.7025,-50.8487 27.4584,-10.6782 53.1371,-25.4244 79.7055,-38.1365 z"
     id="path121"
     style="fill:#ffffff;fill-opacity:1;stroke-width:12.7122" /><path
     class="cls-10"
     d="m 1433.4812,1592.6326 c -6.4832,-4.0679 -9.5341,-2.4153 -12.7122,3.3051 -11.3138,17.0343 -23.009,33.6873 -35.7212,52.2471 -31.0177,-54.9167 -60.637,-107.5451 -90.3836,-160.0463 -1.9068,-3.3052 -3.3051,-6.3561 0.6357,-9.1528 l 45.6367,-31.5262 a 117.71477,117.71477 0 0 1 2.2882,19.3225 c -0.8899,13.8563 5.0848,17.0343 18.4326,16.7801 58.476,-0.7628 116.9521,0 175.428,0 h 29.7466 l -63.5609,87.4597 c 28.8566,3.6866 55.4251,6.4833 81.8665,10.4241 10.5511,1.5253 12.7121,-1.3985 11.8222,-11.5681 -4.9577,-54.6624 -11.0595,-109.1977 -12.7121,-163.9871 a 124.83359,124.83359 0 0 0 -33.8144,-77.5443 443.40077,443.40077 0 0 0 -139.834,-105.7654 25.424356,25.424356 0 0 0 -32.0347,2.7967 c -57.5861,45.7639 -115.8079,90.765 -173.9026,136.1475 l -29.7465,24.5345 c -57.0777,-48.0521 -117.4605,-94.7058 -176.57212,-139.834 -13.60204,-10.424 -26.18709,-28.221 -41.82306,-28.3481 -15.63597,-0.127 -31.01772,13.3477 -45.89095,21.8649 a 447.08732,447.08732 0 0 0 -148.85961,125.9777 44.238379,44.238379 0 0 0 -8.51717,26.6955 c 0,58.9846 -0.63561,117.9691 0,176.8264 a 23.390408,23.390408 0 0 1 -10.29688,21.6107 1425.925,1425.925 0 0 0 -117.20626,97.121 22.373433,22.373433 0 0 0 -10.16975,17.6701 216.99687,216.99687 0 0 0 26.1871,109.7059 c 36.48396,62.1626 95.08708,88.9853 163.09722,98.6465 12.71217,1.7797 12.71217,4.5765 6.86459,13.9836 -21.48356,37.3737 -42.33157,75.1289 -63.56091,112.757 -1.65254,3.178 -5.72044,5.9746 -3.30513,10.5511 h 159.53781 c -1.65258,-4.3222 -2.79668,-8.0087 -4.32214,-11.6953 -16.01736,-38.1365 -29.74648,-76.273 -48.56052,-113.1384 -14.36477,-27.4583 -13.47489,-47.4165 10.93247,-67.3745 a 345.89835,345.89835 0 0 0 34.9585,-38.1365 l 22.88192,-25.4243 a 23.136163,23.136163 0 0 1 -3.5594,16.5258 c -10.80537,25.4242 -21.6107,50.8486 -32.92452,75.129 a 17.542806,17.542806 0 0 0 1.77968,20.7207 c 28.85663,38.1365 57.20478,76.2731 85.42582,114.4096 4.32214,5.8476 7.24597,7.6274 14.36476,3.4323 q 80.59525,-49.069 162.08025,-96.7395 a 14.619005,14.619005 0 0 0 7.7545,-14.7463 635.60889,635.60889 0 0 1 0,-74.6204 c 2.9238,-30.6364 -11.6953,-50.8487 -32.5432,-69.6628 -33.5601,-29.4922 -74.8747,-39.662 -117.5877,-44.7468 -13.47487,-1.6527 -12.71213,-6.1019 -9.40697,-16.2717 11.82227,-31.6533 36.86527,-48.6876 66.61177,-60.3827 a 348.56793,348.56793 0 0 1 111.2316,-18.687 c 40.5519,2.0339 83.7733,4.9577 121.6555,21.7379 a 100.55333,100.55333 0 0 1 59.1117,57.8404 c 3.4322,9.2798 4.3221,15.636 -8.8985,15.3818 a 100.93469,100.93469 0 0 0 -21.1023,3.1779 c -41.5688,7.8816 -80.4681,21.3565 -109.5789,54.2809 a 67.883032,67.883032 0 0 0 -20.3395,51.9931 724.59416,724.59416 0 0 1 0,76.2729 19.95812,19.95812 0 0 0 11.4409,20.4666 c 46.908,27.3313 93.3074,55.4251 139.834,83.1376 27.204,16.2718 54.6623,32.4162 83.9004,49.7048 0,-10.0428 0,-17.5429 0,-25.4244 q -2.034,-100.4263 -4.0679,-201.1067 c -0.7628,-33.3058 -0.7628,-33.3058 33.9415,-34.0687 a 10.296864,10.296864 0 0 1 3.9407,-1.9067 l 184.1996,-25.4244 58.0945,-8.5172 c -92.7988,-59.2387 -182.5469,-116.6978 -272.1677,-174.7924 z m -387.9756,-88.9853 c -28.3482,46.7809 -57.96756,92.7989 -88.98528,141.3594 -14.36476,-25.4243 -27.58543,-47.0349 -39.91626,-69.6627 a 15.635978,15.635978 0 0 0 -16.65292,-9.407 c -19.70389,0 -42.20443,6.7375 -58.34892,-2.2881 -16.14446,-9.0258 -24.53448,-28.9839 -36.2297,-44.3656 -8.77139,-11.441 -17.41566,-23.1362 -26.44133,-35.0856 a 31.271958,31.271958 0 0 1 17.54281,-2.1611 c 63.56089,0 126.1048,0 189.15719,0 12.71219,0 18.81401,-2.6696 16.52591,-16.5258 a 135.3847,135.3847 0 0 1 0,-19.3225 201.61515,201.61515 0 0 1 42.5857,23.1361 28.729521,28.729521 0 0 1 0.7628,34.3229 z"
     id="path124"
     style="stroke-width:12.7122" /><path
     class="cls-11"
     d="m 1377.5476,2199.6391 a 66.738936,66.738936 0 0 1 -22.3734,31.9075 21.356458,21.356458 0 0 1 -34.1957,-4.0679 166.27529,166.27529 0 0 1 -28.8567,-56.4421 c -1.017,-2.7966 -0.8898,-6.1018 -5.212,-7.7544 -11.9494,65.5949 -41.4417,120.003 -104.7483,147.9698 a 58.603139,58.603139 0 0 1 -8.7714,3.3052 47.035059,47.035059 0 0 1 -5.0849,-2.0339 c -54.281,-22.7549 -83.7732,-66.739 -98.9007,-121.9098 -2.5425,-9.28 -4.5764,-18.687 -7.246,-29.8737 -5.0849,12.7121 -9.2799,23.7718 -13.8562,34.7043 a 121.78267,121.78267 0 0 1 -17.67,30.1277 c -12.7122,16.0174 -24.2802,16.7803 -39.66197,2.6696 a 84.535984,84.535984 0 0 1 -23.2633,-43.6027 290.72752,290.72752 0 0 1 -8.00867,-84.536 c 0,-4.5763 0,-8.6442 5.46624,-11.3138 l 207.5899,-110.9773 c 2.4153,-3.4323 4.3221,-1.5256 6.2289,0 q 101.6974,54.7895 203.3949,109.1975 a 12.712178,12.712178 0 0 1 7.7544,11.6951 266.193,266.193 0 0 1 -12.5851,100.9349 z"
     id="path126"
     style="stroke-width:12.7122" /></svg>
