<?xml version="1.0" encoding="UTF-8" standalone="no"?>
<svg
   viewBox="0 0 702.64 862.38"
   version="1.1"
   id="svg132"
   sodipodi:docname="logo.svg"
   width="702.64001"
   height="862.38"
   inkscape:version="1.2.2 (b0a8486541, 2022-12-01)"
   xmlns:inkscape="http://www.inkscape.org/namespaces/inkscape"
   xmlns:sodipodi="http://sodipodi.sourceforge.net/DTD/sodipodi-0.dtd"
   xmlns="http://www.w3.org/2000/svg"
   xmlns:svg="http://www.w3.org/2000/svg">
  <sodipodi:namedview
     id="namedview134"
     pagecolor="#505050"
     bordercolor="#ffffff"
     borderopacity="1"
     inkscape:showpageshadow="0"
     inkscape:pageopacity="0"
     inkscape:pagecheckerboard="1"
     inkscape:deskcolor="#505050"
     showgrid="false"
     inkscape:zoom="0.70710678"
     inkscape:cx="673.16565"
     inkscape:cy="535.27983"
     inkscape:window-width="2512"
     inkscape:window-height="1011"
     inkscape:window-x="0"
     inkscape:window-y="0"
     inkscape:window-maximized="1"
     inkscape:current-layer="svg132" />
  <defs
     id="defs4">
    <style
       id="style2">.cls-1{fill:#dda90a;}.cls-2{fill:#932229;}.cls-3{fill:#dca80a;}.cls-4{fill:#020201;}.cls-5{fill:#df1818;}.cls-6{fill:#e33e28;}.cls-7{fill:#b41d1b;}.cls-8{fill:#922229;}.cls-9{fill:#902229;}.cls-10{fill:#fffefe;}.cls-11{fill:#fff;}</style>
  </defs>
  <g
     id="Leon"
     transform="matrix(3.8334415,0,0,3.8334415,-324.0614,-251.75467)">
    <path
       class="cls-5"
       d="m 250,232.68 a 34.69,34.69 0 0 1 -12.11,0.86 37.7,37.7 0 0 1 -7.34,-1.57 c -0.88,-0.29 -1.77,-0.61 -2.65,-1 L 227,230.6 v 0 a 56.43,56.43 0 0 1 -17.44,-12 v 0 A 103.32,103.32 0 0 1 200,207.85 c -0.27,-0.35 -18.31,-30.12 -20.56,-35.27 0,0 0,0 0,0 -0.18,-0.43 -0.26,-0.68 -0.2,-0.73 -1.18,-2.83 -2.38,-5.66 -3.54,-8.5 -4.91,-12.06 -9.18,-24.34 -12.9,-36.81 -0.77,-2.6 -1.55,-5.2 -2.32,-7.79 a 21.54,21.54 0 0 1 -6,-8.29 31.69,31.69 0 0 1 -2.25,-9.78 c -20.45,12.18 -32.63,29.73 -36.18,53.25 a 23.16,23.16 0 0 1 -5.51,-10.93 30,30 0 0 0 -4.48,5.46 c -6.83,10.6 -9.44,22.46 -10.35,34.82 -0.16,2.19 -0.18,4.4 -0.27,6.82 -3.2,-4 -4.68,-8.63 -6.56,-13.32 -2.42,9.11 -3.55,18 -2.6,27.16 a 58.32,58.32 0 0 0 10,27.2 c 6.29,9.22 14.58,16.38 23.63,22.73 a 93.66,93.66 0 0 0 16.71,7.71 114.7,114.7 0 0 0 22.69,5.66 c 2.75,0.4 5.53,0.64 8.31,0.84 2.47,0.19 4.94,0.14 7.41,0.18 a 93.56,93.56 0 0 0 21,-2.21 100.12,100.12 0 0 0 24.43,-8.6 118.82,118.82 0 0 0 23.13,-15.25 c 4.06,-3.43 8,-7 11.69,-10.79 0.24,-0.25 0.45,-0.54 0.67,-0.8 v 0 c -1.95,0.61 -3.88,1.55 -5.95,2.07 z m -110.45,4.37 h -0.06 z m 0.57,0.34 c 0,0 -0.09,0 -0.09,0 a 1,1 0 0 1 0.08,-0.14 l 0.15,0.11 a 0.5,0.5 0 0 1 -0.14,0.03 z"
       id="path77" />
    <path
       class="cls-6"
       d="m 257.52,229.4 c -0.28,0.5 -0.87,0.61 -1.24,1 l -0.23,0.23 v 0 h -0.07 v 0 c -2,0.61 -3.92,1.55 -6,2.07 a 34.69,34.69 0 0 1 -12.11,0.86 37.7,37.7 0 0 1 -7.34,-1.57 c -0.89,-0.29 -1.77,-0.61 -2.65,-1 l -0.9,-0.37 a 56.57,56.57 0 0 1 -17.44,-12 h -0.05 A 103.32,103.32 0 0 1 200,207.85 c -0.27,-0.35 -18.31,-30.12 -20.56,-35.27 0,0 0,0 0,0 -0.1,-0.47 -0.15,-0.72 -0.15,-0.72 -1.18,-2.83 -2.38,-5.66 -3.54,-8.5 q -7.36,-18.09 -12.9,-36.81 -1.16,-3.9 -2.33,-7.79 c -0.12,-3.11 -0.33,-6.22 -0.36,-9.34 a 62.38,62.38 0 0 1 2.78,-20.53 41.67,41.67 0 0 1 17.36,-22.2 c 0.17,-0.11 0.34,-0.2 0.63,-0.36 -0.31,3 -0.64,6 -0.68,8.89 a 78.37,78.37 0 0 0 1.1,15.74 21.18,21.18 0 0 0 9.26,14.23 c 2.57,1.76 5.07,3.62 7.55,5.51 a 25.57,25.57 0 0 1 8.6,10.32 c 0,-5.26 0.38,-10.47 2,-15.49 a 32.14,32.14 0 0 1 8.62,-13.13 69.83,69.83 0 0 0 -0.48,10.51 c 0.33,7.52 3,13.86 9,18.69 2.86,2.31 4,5.59 4.66,9.06 a 46.83,46.83 0 0 1 0.58,12.17 3.22,3.22 0 0 0 0.1,1.05 c 2.46,-5 4.31,-10.42 9.95,-13 0.16,0.36 -0.08,0.65 -0.19,0.95 a 79.28,79.28 0 0 0 -4.29,16.39 c -0.88,7.09 -0.44,14 3.49,20.21 a 20.32,20.32 0 0 0 4.1,4.74 c -0.31,-6.42 0.07,-12.62 -1.13,-18.77 10.33,12.56 15,27.4 17.52,43.43 a 43.3,43.3 0 0 0 5.1,-12.38 c 1.57,15.46 -0.79,30.18 -8.27,43.95 z"
       id="path79" />
    <path
       class="cls-2"
       d="m 256.27,230.39 c 0.37,-0.39 1,-0.5 1.25,-1 a 7.16,7.16 0 0 0 3.7,-1.8 c 0.38,-0.29 0.74,-0.6 1.23,-1 a 4.88,4.88 0 0 1 -0.78,2.12 86.21,86.21 0 0 1 -10.21,14.9 132.88,132.88 0 0 1 -35.65,30.77 100.15,100.15 0 0 1 -37.25,13.06 103.14,103.14 0 0 1 -25.44,0.5 c -16,-1.77 -30.76,-6.93 -43.77,-16.63 -0.51,-0.38 -1,-0.84 -1.43,-1.26 l 0.1,-0.13 a 63.62,63.62 0 0 0 8.83,2.08 67.68,67.68 0 0 0 7.57,0.6 3.42,3.42 0 0 0 -1.6,-0.93 78.3,78.3 0 0 1 -16.77,-9.41 44.79,44.79 0 0 1 -15,-19.95 7.25,7.25 0 0 1 -0.29,-0.9 c 0,-0.06 0,-0.15 0.09,-0.27 a 13.24,13.24 0 0 1 2.5,1.59 68.13,68.13 0 0 0 25.59,11.27 c 0.36,0.07 0.75,0.38 1.07,-0.09 a 93.71,93.71 0 0 0 16.71,7.71 114.33,114.33 0 0 0 22.69,5.65 c 2.74,0.41 5.52,0.64 8.3,0.85 2.48,0.18 4.94,0.13 7.42,0.18 a 93.57,93.57 0 0 0 21,-2.22 99.85,99.85 0 0 0 24.43,-8.6 118,118 0 0 0 23.12,-15.25 q 6.1,-5.13 11.7,-10.79 a 10.56,10.56 0 0 0 0.68,-0.82 v 0 z"
       id="path81" />
    <g
       id="detalles">
      <path
         class="cls-6"
         d="m 256,230.61 v 0 c -2,0.62 -3.87,1.55 -5.92,2.06 a 34.72,34.72 0 0 1 -12.16,0.85 34.69,34.69 0 0 0 12.11,-0.86 c 2.04,-0.5 3.97,-1.44 5.97,-2.05 z"
         id="path83" />
      <path
         class="cls-7"
         d="m 107.92,270.07 -0.26,-0.2 c 0.15,-0.14 0.26,-0.07 0.36,0.08 z"
         id="path85" />
      <path
         class="cls-8"
         d="M 122,239.9 A 22.81,22.81 0 0 1 116.25,236.07 53.73,53.73 0 0 1 99.19,210.91 61.25,61.25 0 0 1 97,200.62 c -0.09,-0.72 -0.17,-1.49 0.68,-1.86 0.85,-0.37 1.59,0.15 1.7,1.23 a 62.06,62.06 0 0 0 1.84,10.73 51.3,51.3 0 0 0 10.45,19.63 56,56 0 0 0 10,9.27 c 0.12,0.08 0.23,0.19 0.33,0.28 z"
         id="path87" />
      <path
         class="cls-8"
         d="m 139.1,236.92 a 26.57,26.57 0 0 1 -4.4,-2.36 40.23,40.23 0 0 1 -17.37,-22.85 6,6 0 0 1 -0.2,-0.69 c -0.12,-0.76 0.08,-1.4 0.9,-1.58 0.82,-0.18 1.29,0.28 1.47,1 a 43.07,43.07 0 0 0 2.33,7.16 39.07,39.07 0 0 0 16.17,18.32 c 0.34,0.23 0.85,0.32 1.1,1 z"
         id="path89" />
      <path
         class="cls-2"
         d="m 129.81,164.34 a 24,24 0 0 1 -1.13,-7.27 35.73,35.73 0 0 1 5.59,-21.43 c 0.65,-1 1.4,-1.94 2.11,-2.91 0.51,-0.69 1.21,-1.08 1.93,-0.47 0.72,0.61 0.49,1.41 -0.13,2.09 a 32.41,32.41 0 0 0 -8,15.73 39.6,39.6 0 0 0 -0.47,13.21 c 0.1,0.35 0.08,0.71 0.1,1.05 z"
         id="path91" />
      <path
         class="cls-2"
         d="m 165.89,256.9 c -9.84,1.07 -18.37,-2.06 -26,-8.08 -0.7,-0.55 -1,-1.24 -0.32,-1.94 0.68,-0.7 1.35,-0.45 2,0.15 a 36.05,36.05 0 0 0 12.38,7.8 33.65,33.65 0 0 0 11.94,2.07 z"
         id="path93" />
      <path
         class="cls-8"
         d="m 112.76,190.33 a 31.09,31.09 0 0 1 -3.76,-9.52 39.58,39.58 0 0 1 -1,-10.69 c 0,-0.88 0.13,-1.67 1.24,-1.65 1.11,0.02 1.27,0.88 1.15,1.72 a 38.52,38.52 0 0 0 2.42,19.61 2.54,2.54 0 0 1 0.07,0.47 z"
         id="path95" />
      <path
         class="cls-8"
         d="m 128.13,187.21 a 17,17 0 0 1 -5.27,-10.33 1.19,1.19 0 0 1 1.1,-1.55 1.14,1.14 0 0 1 1.29,1.26 17.62,17.62 0 0 0 2.87,10.2 1,1 0 0 1 0.08,0.35 z"
         id="path97" />
      <path
         class="cls-2"
         d="m 221.65,245.91 a 0.88,0.88 0 0 1 0.76,-0.46 l 0.07,0.07 a 1.05,1.05 0 0 1 -0.71,0.5 z"
         id="path99" />
      <path
         class="cls-8"
         d="m 140.12,237.16 0.15,0.12 a 0.55,0.55 0 0 1 -0.15,0.08 c 0,0 -0.08,0 -0.08,-0.05 a 1.09,1.09 0 0 1 0.08,-0.15 z"
         id="path101" />
      <path
         class="cls-8"
         d="m 112.83,190.27 0.15,0.27 c 0,0 0,0.05 -0.08,0.07 -0.08,0.02 -0.09,-0.18 -0.14,-0.28 z"
         id="path103" />
      <polygon
         class="cls-8"
         points="139.56,236.96 139.56,237.01 139.49,236.98 "
         id="polygon105" />
      <path
         class="cls-8"
         d="m 128.39,187.42 0.11,0.11 h -0.07 c 0,0 0,-0.06 -0.05,-0.09 z"
         id="path107" />
      <path
         class="cls-8"
         d="m 128.2,187.14 0.19,0.28 v 0 l -0.25,-0.22 z"
         id="path109" />
      <path
         class="cls-2"
         d="m 222.73,245.3 -0.25,0.22 -0.07,-0.07 0.26,-0.21 z"
         id="path111" />
      <path
         class="cls-2"
         d="m 222.67,245.24 0.15,-0.09 -0.09,0.15 z"
         id="path113" />
      <path
         class="cls-5"
         d="m 256.27,230.39 -0.23,0.22 z"
         id="path115" />
      <path
         class="cls-9"
         d="m 185.85,277.67 a 44.8,44.8 0 0 1 -7.92,1.66 84.93,84.93 0 0 1 -13.12,0.83 110.77,110.77 0 0 1 -12.07,-0.53 c -4.59,-0.55 -9.18,-1 -13.73,-1.92 -0.93,-0.18 -1.41,-0.59 -1.24,-1.51 0.17,-0.92 1,-1 1.78,-0.84 a 140.27,140.27 0 0 0 15.06,2.74 125,125 0 0 0 18,0.78 72.35,72.35 0 0 0 12.39,-1.16 5.47,5.47 0 0 1 0.85,-0.05 z"
         id="path117" />
      <path
         class="cls-9"
         d="m 132.57,267.26 a 26.12,26.12 0 0 1 -6.32,-0.95 40.69,40.69 0 0 1 -15.51,-7.22 24.52,24.52 0 0 1 -2.42,-2.14 c -0.56,-0.56 -0.95,-1.29 -0.2,-2 0.75,-0.71 1.3,-0.3 1.86,0.3 6.11,6.66 13.9,10.13 22.59,12.01 z"
         id="path119" />
      <path
         class="cls-2"
         d="m 221.77,246 a 31.6,31.6 0 0 1 -8.17,4.44 62.65,62.65 0 0 1 -17.76,4.17 101.08,101.08 0 0 1 -10.15,0.42 7.85,7.85 0 0 1 -0.84,0 c -0.82,-0.09 -1.56,-0.39 -1.48,-1.36 0.08,-0.97 0.77,-1.23 1.64,-1.17 2,0.14 3.9,0.37 5.85,0.39 8.4,0 16.63,-1 24.52,-4 2.16,-0.84 4.18,-2 6.27,-3 z"
         id="path121" />
    </g>
    <g
       id="cara">
      <path
         class="cls-10"
         d="m 197.34,190 c -0.51,-0.32 -0.75,-0.19 -1,0.26 -0.89,1.34 -1.81,2.65 -2.81,4.11 -2.44,-4.32 -4.77,-8.46 -7.11,-12.59 -0.15,-0.26 -0.26,-0.5 0.05,-0.72 l 3.59,-2.48 a 9.26,9.26 0 0 1 0.18,1.52 c -0.07,1.09 0.4,1.34 1.45,1.32 4.6,-0.06 9.2,0 13.8,0 h 2.34 l -5,6.88 c 2.27,0.29 4.36,0.51 6.44,0.82 0.83,0.12 1,-0.11 0.93,-0.91 -0.39,-4.3 -0.87,-8.59 -1,-12.9 a 9.82,9.82 0 0 0 -2.66,-6.1 34.88,34.88 0 0 0 -11,-8.32 2,2 0 0 0 -2.52,0.22 c -4.53,3.6 -9.11,7.14 -13.68,10.71 l -2.34,1.93 c -4.49,-3.78 -9.24,-7.45 -13.89,-11 -1.07,-0.82 -2.06,-2.22 -3.29,-2.23 -1.23,-0.01 -2.44,1.05 -3.61,1.72 a 35.17,35.17 0 0 0 -11.71,9.91 3.48,3.48 0 0 0 -0.67,2.1 c 0,4.64 -0.05,9.28 0,13.91 a 1.84,1.84 0 0 1 -0.81,1.7 112.17,112.17 0 0 0 -9.22,7.64 1.76,1.76 0 0 0 -0.8,1.39 17.07,17.07 0 0 0 2.06,8.63 c 2.87,4.89 7.48,7 12.83,7.76 1,0.14 1,0.36 0.54,1.1 -1.69,2.94 -3.33,5.91 -5,8.87 -0.13,0.25 -0.45,0.47 -0.26,0.83 h 12.55 c -0.13,-0.34 -0.22,-0.63 -0.34,-0.92 -1.26,-3 -2.34,-6 -3.82,-8.9 -1.13,-2.16 -1.06,-3.73 0.86,-5.3 a 27.21,27.21 0 0 0 2.75,-3 l 1.8,-2 a 1.82,1.82 0 0 1 -0.28,1.3 c -0.85,2 -1.7,4 -2.59,5.91 a 1.38,1.38 0 0 0 0.14,1.63 c 2.27,3 4.5,6 6.72,9 0.34,0.46 0.57,0.6 1.13,0.27 q 6.34,-3.86 12.75,-7.61 a 1.15,1.15 0 0 0 0.61,-1.16 50,50 0 0 1 0,-5.87 c 0.23,-2.41 -0.92,-4 -2.56,-5.48 -2.64,-2.32 -5.89,-3.12 -9.25,-3.52 -1.06,-0.13 -1,-0.48 -0.74,-1.28 0.93,-2.49 2.9,-3.83 5.24,-4.75 a 27.42,27.42 0 0 1 8.75,-1.47 c 3.19,0.16 6.59,0.39 9.57,1.71 a 7.91,7.91 0 0 1 4.65,4.55 c 0.27,0.73 0.34,1.23 -0.7,1.21 a 7.94,7.94 0 0 0 -1.66,0.25 c -3.27,0.62 -6.33,1.68 -8.62,4.27 a 5.34,5.34 0 0 0 -1.6,4.09 57,57 0 0 1 0,6 1.57,1.57 0 0 0 0.9,1.61 c 3.69,2.15 7.34,4.36 11,6.54 2.14,1.28 4.3,2.55 6.6,3.91 0,-0.79 0,-1.38 0,-2 q -0.16,-7.9 -0.32,-15.82 c -0.06,-2.62 -0.06,-2.62 2.67,-2.68 a 0.81,0.81 0 0 1 0.31,-0.15 l 14.49,-2 4.57,-0.67 c -7.3,-4.66 -14.36,-9.18 -21.41,-13.75 z m -30.52,-7 c -2.23,3.68 -4.56,7.3 -7,11.12 -1.13,-2 -2.17,-3.7 -3.14,-5.48 a 1.23,1.23 0 0 0 -1.31,-0.74 c -1.55,0 -3.32,0.53 -4.59,-0.18 -1.27,-0.71 -1.93,-2.28 -2.85,-3.49 -0.69,-0.9 -1.37,-1.82 -2.08,-2.76 a 2.46,2.46 0 0 1 1.38,-0.17 c 5,0 9.92,0 14.88,0 1,0 1.48,-0.21 1.3,-1.3 a 10.65,10.65 0 0 1 0,-1.52 15.86,15.86 0 0 1 3.35,1.82 2.26,2.26 0 0 1 0.06,2.7 z"
         id="path124" />
      <path
         class="cls-11"
         d="m 192.94,237.75 a 5.25,5.25 0 0 1 -1.76,2.51 1.68,1.68 0 0 1 -2.69,-0.32 13.08,13.08 0 0 1 -2.27,-4.44 c -0.08,-0.22 -0.07,-0.48 -0.41,-0.61 -0.94,5.16 -3.26,9.44 -8.24,11.64 a 4.61,4.61 0 0 1 -0.69,0.26 3.7,3.7 0 0 1 -0.4,-0.16 c -4.27,-1.79 -6.59,-5.25 -7.78,-9.59 -0.2,-0.73 -0.36,-1.47 -0.57,-2.35 -0.4,1 -0.73,1.87 -1.09,2.73 a 9.58,9.58 0 0 1 -1.39,2.37 c -1,1.26 -1.91,1.32 -3.12,0.21 a 6.65,6.65 0 0 1 -1.83,-3.43 22.87,22.87 0 0 1 -0.63,-6.65 c 0,-0.36 0,-0.68 0.43,-0.89 l 16.33,-8.73 c 0.19,-0.27 0.34,-0.12 0.49,0 q 8,4.31 16,8.59 a 1,1 0 0 1 0.61,0.92 20.94,20.94 0 0 1 -0.99,7.94 z"
         id="path126" />
    </g>
  </g>
</svg>
