<?xml version="1.0" encoding="UTF-8" standalone="no"?>
<svg
   viewBox="0 0 702.64 862.38"
   version="1.1"
   id="svg132"
   sodipodi:docname="logo2.svg"
   width="702.64001"
   height="862.38"
   inkscape:version="1.2.2 (b0a8486541, 2022-12-01)"
   xml:space="preserve"
   xmlns:inkscape="http://www.inkscape.org/namespaces/inkscape"
   xmlns:sodipodi="http://sodipodi.sourceforge.net/DTD/sodipodi-0.dtd"
   xmlns="http://www.w3.org/2000/svg"
   xmlns:svg="http://www.w3.org/2000/svg"><sodipodi:namedview
     id="namedview134"
     pagecolor="#505050"
     bordercolor="#ffffff"
     borderopacity="1"
     inkscape:showpageshadow="0"
     inkscape:pageopacity="0"
     inkscape:pagecheckerboard="1"
     inkscape:deskcolor="#505050"
     showgrid="false"
     inkscape:zoom="0.70710678"
     inkscape:cx="673.16565"
     inkscape:cy="535.27983"
     inkscape:window-width="2512"
     inkscape:window-height="1011"
     inkscape:window-x="0"
     inkscape:window-y="0"
     inkscape:window-maximized="1"
     inkscape:current-layer="svg132" /><defs
     id="defs4"><style
       id="style2">.cls-1{fill:#dda90a;}.cls-2{fill:#932229;}.cls-3{fill:#dca80a;}.cls-4{fill:#020201;}.cls-5{fill:#df1818;}.cls-6{fill:#e33e28;}.cls-7{fill:#b41d1b;}.cls-8{fill:#922229;}.cls-9{fill:#902229;}.cls-10{fill:#fffefe;}.cls-11{fill:#fff;}</style></defs><path
     class="cls-5"
     d="m 634.29898,640.2105 a 132.98209,132.98209 0 0 1 -46.42298,3.29676 144.52074,144.52074 0 0 1 -28.13746,-6.01851 c -3.37343,-1.11169 -6.78519,-2.33839 -10.15862,-3.83344 l -3.4501,-1.41837 v 0 a 216.3211,216.3211 0 0 1 -66.85522,-46.0013 v 0 a 396.07118,396.07118 0 0 1 -36.6477,-41.20949 c -1.03503,-1.34171 -70.19031,-115.46326 -78.81556,-135.20549 0,0 0,0 0,0 -0.69002,-1.64838 -0.99669,-2.60674 -0.76669,-2.79841 -4.52346,-10.84864 -9.12359,-21.69728 -13.57038,-32.58425 -18.8222,-46.23131 -35.19099,-93.30597 -49.45139,-141.10898 -2.95175,-9.96695 -5.94184,-19.9339 -8.89359,-29.86251 A 82.57233,82.57233 0 0 1 268.12864,171.68728 121.48176,121.48176 0 0 1 259.5034,134.19622 C 181.10952,180.88754 134.4182,248.16444 120.80949,338.32698 A 88.782505,88.782505 0 0 1 99.687223,296.42746 115.00325,115.00325 0 0 0 82.513405,317.35806 C 56.331,357.99253 46.325718,403.45715 42.837286,450.83849 c -0.613351,8.39524 -0.69002,16.86714 -1.035029,26.14407 C 29.535244,461.64879 23.861751,443.89996 16.654881,425.92112 7.3779521,460.84377 3.0461632,494.92307 6.6879326,530.03739 A 223.56631,223.56631 0 0 0 45.022348,634.307 c 24.112347,35.34433 55.891572,62.79177 90.584222,87.13412 a 359.04013,359.04013 0 0 0 64.05681,29.55584 439.69574,439.69574 0 0 0 86.98079,21.69728 c 10.54196,1.53337 21.19893,2.4534 31.85589,3.22009 9.4686,0.72835 18.93721,0.53668 28.40581,0.69002 a 358.65679,358.65679 0 0 0 80.50227,-8.47191 383.80416,383.80416 0 0 0 93.65097,-32.9676 455.48952,455.48952 0 0 0 88.6675,-58.45998 c 15.56378,-13.1487 30.66754,-26.83409 44.81294,-41.36283 0.92002,-0.95836 1.72504,-2.07006 2.5684,-3.06676 v 0 c -7.47521,2.3384 -14.87375,5.94184 -22.80897,7.93523 z m -423.40362,16.75214 h -0.23001 z m 2.18506,1.30337 c 0,0 -0.34501,0 -0.34501,0 a 3.8334415,3.8334415 0 0 1 0.30668,-0.53668 l 0.57501,0.42167 a 1.9167208,1.9167208 0 0 1 -0.53668,0.11501 z"
     id="path77"
     style="stroke-width:3.83344;fill:#3674b5;fill-opacity:1" /><path
     class="cls-6"
     d="m 663.12646,627.63681 c -1.07337,1.91672 -3.3351,2.3384 -4.75347,3.83344 l -0.88169,0.88169 v 0 h -0.26834 v 0 c -7.66689,2.3384 -15.0271,5.94184 -23.00065,7.93523 a 132.98209,132.98209 0 0 1 -46.42298,3.29676 144.52074,144.52074 0 0 1 -28.13746,-6.01851 c -3.41176,-1.11169 -6.78519,-2.3384 -10.15862,-3.83344 l -3.4501,-1.41837 a 216.85779,216.85779 0 0 1 -66.85522,-46.0013 h -0.19167 A 396.07118,396.07118 0 0 1 442.6269,545.02615 c -1.03503,-1.34171 -70.19031,-115.46326 -78.81556,-135.20549 0,0 0,0 0,0 -0.38334,-1.80171 -0.57501,-2.76007 -0.57501,-2.76007 -4.52346,-10.84864 -9.12359,-21.69728 -13.57039,-32.58426 q -28.21413,-69.34695 -49.45139,-141.10898 -4.44679,-14.95042 -8.93192,-29.86251 c -0.46001,-11.922 -1.26504,-23.844 -1.38004,-35.80434 A 239.13008,239.13008 0 0 1 300.55956,88.999945 159.73951,159.73951 0 0 1 367.1081,3.8975436 c 0.65169,-0.4216785 1.30337,-0.7666883 2.41507,-1.3800389 -1.18837,11.5003243 -2.4534,23.0006493 -2.60674,34.0792953 a 300.42681,300.42681 0 0 0 4.21679,60.338369 81.192291,81.192291 0 0 0 35.49766,54.549871 c 9.85195,6.74686 19.43555,13.87706 28.94249,21.12226 a 98.021099,98.021099 0 0 1 32.96759,39.56112 c 0,-20.1639 1.45671,-40.13613 7.66689,-59.38001 a 123.20681,123.20681 0 0 1 33.04426,-50.33309 267.68922,267.68922 0 0 0 -1.84005,40.28947 c 1.26504,28.82748 11.50033,53.1315 34.50097,71.64703 10.96365,8.85525 15.33377,21.42893 17.86384,34.73098 a 179.52007,179.52007 0 0 1 2.2234,46.65298 12.343682,12.343682 0 0 0 0.38334,4.02511 c 9.43027,-19.1672 16.52214,-39.94446 38.14275,-49.83474 0.61335,1.38004 -0.30668,2.49174 -0.72836,3.64177 a 303.91524,303.91524 0 0 0 -16.44546,62.83011 c -3.37343,27.1791 -1.68672,53.66818 13.37871,77.47385 a 77.895531,77.895531 0 0 0 15.71711,18.17051 c -1.18837,-24.61069 0.26834,-48.37803 -4.33179,-71.95369 39.59945,48.14802 57.50162,105.03629 67.16189,166.48636 a 165.98802,165.98802 0 0 0 19.55056,-47.458 c 6.0185,59.265 -3.02842,115.69326 -31.70256,168.47975 z"
     id="path79"
     style="stroke-width:3.83344;fill:#578fca;fill-opacity:1" /><path
     class="cls-2"
     d="m 658.33465,631.43192 c 1.41838,-1.49505 3.83344,-1.91672 4.79181,-3.83344 a 27.447441,27.447441 0 0 0 14.18373,-6.9002 c 1.45671,-1.1117 2.83675,-2.30006 4.71513,-3.83344 a 18.707195,18.707195 0 0 1 -2.99008,8.1269 330.48099,330.48099 0 0 1 -39.13944,57.11827 509.38771,509.38771 0 0 1 -136.66219,117.955 383.91917,383.91917 0 0 1 -142.7957,50.06474 395.38116,395.38116 0 0 1 -97.52275,1.91673 C 201.5801,845.26128 144.9985,825.48073 95.125428,788.29634 c -1.955055,-1.4567 -3.833441,-3.22009 -5.481821,-4.83013 l 0.383344,-0.49835 a 243.88355,243.88355 0 0 0 33.849289,7.97356 259.44732,259.44732 0 0 0 29.01915,2.30006 13.11037,13.11037 0 0 0 -6.1335,-3.5651 300.15847,300.15847 0 0 1 -64.286819,-36.07268 171.69984,171.69984 0 0 1 -57.501622,-76.47716 27.792451,27.792451 0 0 1 -1.111698,-3.4501 c 0,-0.23 0,-0.57501 0.345009,-1.03503 a 50.754765,50.754765 0 0 1 9.583604,6.09518 261.17237,261.17237 0 0 0 98.097766,43.20288 c 1.38004,0.26834 2.87508,1.45671 4.10178,-0.34501 a 359.2318,359.2318 0 0 0 64.05681,29.55584 438.27737,438.27737 0 0 0 86.98079,21.65894 c 10.50363,1.57171 21.1606,2.4534 31.81756,3.25842 9.50694,0.69002 18.9372,0.49835 28.44414,0.69002 a 358.69512,358.69512 0 0 0 80.50227,-8.51024 382.76913,382.76913 0 0 0 93.65098,-32.96759 452.3461,452.3461 0 0 0 88.62916,-58.45999 q 23.384,-19.66555 44.85127,-41.36283 a 40.481142,40.481142 0 0 0 2.60674,-3.14342 v 0 z"
     id="path81"
     style="stroke-width:3.83344;fill:#3674b5;fill-opacity:1" /><g
     id="detalles"
     transform="matrix(3.8334415,0,0,3.8334415,-324.0614,-251.75467)"
     style="fill:#578fca;fill-opacity:1"><path
       class="cls-6"
       d="m 256,230.61 v 0 c -2,0.62 -3.87,1.55 -5.92,2.06 a 34.72,34.72 0 0 1 -12.16,0.85 34.69,34.69 0 0 0 12.11,-0.86 c 2.04,-0.5 3.97,-1.44 5.97,-2.05 z"
       id="path83"
       style="fill:#578fca;fill-opacity:1" /><path
       class="cls-7"
       d="m 107.92,270.07 -0.26,-0.2 c 0.15,-0.14 0.26,-0.07 0.36,0.08 z"
       id="path85"
       style="fill:#578fca;fill-opacity:1" /><path
       class="cls-8"
       d="M 122,239.9 A 22.81,22.81 0 0 1 116.25,236.07 53.73,53.73 0 0 1 99.19,210.91 61.25,61.25 0 0 1 97,200.62 c -0.09,-0.72 -0.17,-1.49 0.68,-1.86 0.85,-0.37 1.59,0.15 1.7,1.23 a 62.06,62.06 0 0 0 1.84,10.73 51.3,51.3 0 0 0 10.45,19.63 56,56 0 0 0 10,9.27 c 0.12,0.08 0.23,0.19 0.33,0.28 z"
       id="path87"
       style="fill:#578fca;fill-opacity:1" /><path
       class="cls-8"
       d="m 139.1,236.92 a 26.57,26.57 0 0 1 -4.4,-2.36 40.23,40.23 0 0 1 -17.37,-22.85 6,6 0 0 1 -0.2,-0.69 c -0.12,-0.76 0.08,-1.4 0.9,-1.58 0.82,-0.18 1.29,0.28 1.47,1 a 43.07,43.07 0 0 0 2.33,7.16 39.07,39.07 0 0 0 16.17,18.32 c 0.34,0.23 0.85,0.32 1.1,1 z"
       id="path89"
       style="fill:#578fca;fill-opacity:1" /><path
       class="cls-2"
       d="m 129.81,164.34 a 24,24 0 0 1 -1.13,-7.27 35.73,35.73 0 0 1 5.59,-21.43 c 0.65,-1 1.4,-1.94 2.11,-2.91 0.51,-0.69 1.21,-1.08 1.93,-0.47 0.72,0.61 0.49,1.41 -0.13,2.09 a 32.41,32.41 0 0 0 -8,15.73 39.6,39.6 0 0 0 -0.47,13.21 c 0.1,0.35 0.08,0.71 0.1,1.05 z"
       id="path91"
       style="fill:#578fca;fill-opacity:1" /><path
       class="cls-2"
       d="m 165.89,256.9 c -9.84,1.07 -18.37,-2.06 -26,-8.08 -0.7,-0.55 -1,-1.24 -0.32,-1.94 0.68,-0.7 1.35,-0.45 2,0.15 a 36.05,36.05 0 0 0 12.38,7.8 33.65,33.65 0 0 0 11.94,2.07 z"
       id="path93"
       style="fill:#578fca;fill-opacity:1" /><path
       class="cls-8"
       d="m 112.76,190.33 a 31.09,31.09 0 0 1 -3.76,-9.52 39.58,39.58 0 0 1 -1,-10.69 c 0,-0.88 0.13,-1.67 1.24,-1.65 1.11,0.02 1.27,0.88 1.15,1.72 a 38.52,38.52 0 0 0 2.42,19.61 2.54,2.54 0 0 1 0.07,0.47 z"
       id="path95"
       style="fill:#578fca;fill-opacity:1" /><path
       class="cls-8"
       d="m 128.13,187.21 a 17,17 0 0 1 -5.27,-10.33 1.19,1.19 0 0 1 1.1,-1.55 1.14,1.14 0 0 1 1.29,1.26 17.62,17.62 0 0 0 2.87,10.2 1,1 0 0 1 0.08,0.35 z"
       id="path97"
       style="fill:#578fca;fill-opacity:1" /><path
       class="cls-2"
       d="m 221.65,245.91 a 0.88,0.88 0 0 1 0.76,-0.46 l 0.07,0.07 a 1.05,1.05 0 0 1 -0.71,0.5 z"
       id="path99"
       style="fill:#578fca;fill-opacity:1" /><path
       class="cls-8"
       d="m 140.12,237.16 0.15,0.12 a 0.55,0.55 0 0 1 -0.15,0.08 c 0,0 -0.08,0 -0.08,-0.05 a 1.09,1.09 0 0 1 0.08,-0.15 z"
       id="path101"
       style="fill:#578fca;fill-opacity:1" /><path
       class="cls-8"
       d="m 112.83,190.27 0.15,0.27 c 0,0 0,0.05 -0.08,0.07 -0.08,0.02 -0.09,-0.18 -0.14,-0.28 z"
       id="path103"
       style="fill:#578fca;fill-opacity:1" /><polygon
       class="cls-8"
       points="139.49,236.98 139.56,236.96 139.56,237.01 "
       id="polygon105"
       style="fill:#578fca;fill-opacity:1" /><path
       class="cls-8"
       d="m 128.39,187.42 0.11,0.11 h -0.07 c 0,0 0,-0.06 -0.05,-0.09 z"
       id="path107"
       style="fill:#578fca;fill-opacity:1" /><path
       class="cls-8"
       d="m 128.2,187.14 0.19,0.28 v 0 l -0.25,-0.22 z"
       id="path109"
       style="fill:#578fca;fill-opacity:1" /><path
       class="cls-2"
       d="m 222.73,245.3 -0.25,0.22 -0.07,-0.07 0.26,-0.21 z"
       id="path111"
       style="fill:#578fca;fill-opacity:1" /><path
       class="cls-2"
       d="m 222.67,245.24 0.15,-0.09 -0.09,0.15 z"
       id="path113"
       style="fill:#578fca;fill-opacity:1" /><path
       class="cls-5"
       d="m 256.27,230.39 -0.23,0.22 z"
       id="path115"
       style="fill:#578fca;fill-opacity:1" /><path
       class="cls-9"
       d="m 185.85,277.67 a 44.8,44.8 0 0 1 -7.92,1.66 84.93,84.93 0 0 1 -13.12,0.83 110.77,110.77 0 0 1 -12.07,-0.53 c -4.59,-0.55 -9.18,-1 -13.73,-1.92 -0.93,-0.18 -1.41,-0.59 -1.24,-1.51 0.17,-0.92 1,-1 1.78,-0.84 a 140.27,140.27 0 0 0 15.06,2.74 125,125 0 0 0 18,0.78 72.35,72.35 0 0 0 12.39,-1.16 5.47,5.47 0 0 1 0.85,-0.05 z"
       id="path117"
       style="fill:#578fca;fill-opacity:1" /><path
       class="cls-9"
       d="m 132.57,267.26 a 26.12,26.12 0 0 1 -6.32,-0.95 40.69,40.69 0 0 1 -15.51,-7.22 24.52,24.52 0 0 1 -2.42,-2.14 c -0.56,-0.56 -0.95,-1.29 -0.2,-2 0.75,-0.71 1.3,-0.3 1.86,0.3 6.11,6.66 13.9,10.13 22.59,12.01 z"
       id="path119"
       style="fill:#578fca;fill-opacity:1" /><path
       class="cls-2"
       d="m 221.77,246 a 31.6,31.6 0 0 1 -8.17,4.44 62.65,62.65 0 0 1 -17.76,4.17 101.08,101.08 0 0 1 -10.15,0.42 7.85,7.85 0 0 1 -0.84,0 c -0.82,-0.09 -1.56,-0.39 -1.48,-1.36 0.08,-0.97 0.77,-1.23 1.64,-1.17 2,0.14 3.9,0.37 5.85,0.39 8.4,0 16.63,-1 24.52,-4 2.16,-0.84 4.18,-2 6.27,-3 z"
       id="path121"
       style="fill:#578fca;fill-opacity:1" /></g><g
     id="cara"
     transform="matrix(3.8334415,0,0,3.8334415,-324.0614,-251.75467)"><path
       class="cls-10"
       d="m 197.34,190 c -0.51,-0.32 -0.75,-0.19 -1,0.26 -0.89,1.34 -1.81,2.65 -2.81,4.11 -2.44,-4.32 -4.77,-8.46 -7.11,-12.59 -0.15,-0.26 -0.26,-0.5 0.05,-0.72 l 3.59,-2.48 a 9.26,9.26 0 0 1 0.18,1.52 c -0.07,1.09 0.4,1.34 1.45,1.32 4.6,-0.06 9.2,0 13.8,0 h 2.34 l -5,6.88 c 2.27,0.29 4.36,0.51 6.44,0.82 0.83,0.12 1,-0.11 0.93,-0.91 -0.39,-4.3 -0.87,-8.59 -1,-12.9 a 9.82,9.82 0 0 0 -2.66,-6.1 34.88,34.88 0 0 0 -11,-8.32 2,2 0 0 0 -2.52,0.22 c -4.53,3.6 -9.11,7.14 -13.68,10.71 l -2.34,1.93 c -4.49,-3.78 -9.24,-7.45 -13.89,-11 -1.07,-0.82 -2.06,-2.22 -3.29,-2.23 -1.23,-0.01 -2.44,1.05 -3.61,1.72 a 35.17,35.17 0 0 0 -11.71,9.91 3.48,3.48 0 0 0 -0.67,2.1 c 0,4.64 -0.05,9.28 0,13.91 a 1.84,1.84 0 0 1 -0.81,1.7 112.17,112.17 0 0 0 -9.22,7.64 1.76,1.76 0 0 0 -0.8,1.39 17.07,17.07 0 0 0 2.06,8.63 c 2.87,4.89 7.48,7 12.83,7.76 1,0.14 1,0.36 0.54,1.1 -1.69,2.94 -3.33,5.91 -5,8.87 -0.13,0.25 -0.45,0.47 -0.26,0.83 h 12.55 c -0.13,-0.34 -0.22,-0.63 -0.34,-0.92 -1.26,-3 -2.34,-6 -3.82,-8.9 -1.13,-2.16 -1.06,-3.73 0.86,-5.3 a 27.21,27.21 0 0 0 2.75,-3 l 1.8,-2 a 1.82,1.82 0 0 1 -0.28,1.3 c -0.85,2 -1.7,4 -2.59,5.91 a 1.38,1.38 0 0 0 0.14,1.63 c 2.27,3 4.5,6 6.72,9 0.34,0.46 0.57,0.6 1.13,0.27 q 6.34,-3.86 12.75,-7.61 a 1.15,1.15 0 0 0 0.61,-1.16 50,50 0 0 1 0,-5.87 c 0.23,-2.41 -0.92,-4 -2.56,-5.48 -2.64,-2.32 -5.89,-3.12 -9.25,-3.52 -1.06,-0.13 -1,-0.48 -0.74,-1.28 0.93,-2.49 2.9,-3.83 5.24,-4.75 a 27.42,27.42 0 0 1 8.75,-1.47 c 3.19,0.16 6.59,0.39 9.57,1.71 a 7.91,7.91 0 0 1 4.65,4.55 c 0.27,0.73 0.34,1.23 -0.7,1.21 a 7.94,7.94 0 0 0 -1.66,0.25 c -3.27,0.62 -6.33,1.68 -8.62,4.27 a 5.34,5.34 0 0 0 -1.6,4.09 57,57 0 0 1 0,6 1.57,1.57 0 0 0 0.9,1.61 c 3.69,2.15 7.34,4.36 11,6.54 2.14,1.28 4.3,2.55 6.6,3.91 0,-0.79 0,-1.38 0,-2 q -0.16,-7.9 -0.32,-15.82 c -0.06,-2.62 -0.06,-2.62 2.67,-2.68 a 0.81,0.81 0 0 1 0.31,-0.15 l 14.49,-2 4.57,-0.67 c -7.3,-4.66 -14.36,-9.18 -21.41,-13.75 z m -30.52,-7 c -2.23,3.68 -4.56,7.3 -7,11.12 -1.13,-2 -2.17,-3.7 -3.14,-5.48 a 1.23,1.23 0 0 0 -1.31,-0.74 c -1.55,0 -3.32,0.53 -4.59,-0.18 -1.27,-0.71 -1.93,-2.28 -2.85,-3.49 -0.69,-0.9 -1.37,-1.82 -2.08,-2.76 a 2.46,2.46 0 0 1 1.38,-0.17 c 5,0 9.92,0 14.88,0 1,0 1.48,-0.21 1.3,-1.3 a 10.65,10.65 0 0 1 0,-1.52 15.86,15.86 0 0 1 3.35,1.82 2.26,2.26 0 0 1 0.06,2.7 z"
       id="path124" /><path
       class="cls-11"
       d="m 192.94,237.75 a 5.25,5.25 0 0 1 -1.76,2.51 1.68,1.68 0 0 1 -2.69,-0.32 13.08,13.08 0 0 1 -2.27,-4.44 c -0.08,-0.22 -0.07,-0.48 -0.41,-0.61 -0.94,5.16 -3.26,9.44 -8.24,11.64 a 4.61,4.61 0 0 1 -0.69,0.26 3.7,3.7 0 0 1 -0.4,-0.16 c -4.27,-1.79 -6.59,-5.25 -7.78,-9.59 -0.2,-0.73 -0.36,-1.47 -0.57,-2.35 -0.4,1 -0.73,1.87 -1.09,2.73 a 9.58,9.58 0 0 1 -1.39,2.37 c -1,1.26 -1.91,1.32 -3.12,0.21 a 6.65,6.65 0 0 1 -1.83,-3.43 22.87,22.87 0 0 1 -0.63,-6.65 c 0,-0.36 0,-0.68 0.43,-0.89 l 16.33,-8.73 c 0.19,-0.27 0.34,-0.12 0.49,0 q 8,4.31 16,8.59 a 1,1 0 0 1 0.61,0.92 20.94,20.94 0 0 1 -0.99,7.94 z"
       id="path126" /></g></svg>
