<?xml version="1.0" encoding="UTF-8" standalone="no"?>
<svg
   viewBox="0 0 1541.64 1874.38"
   version="1.1"
   id="svg132"
   sodipodi:docname="baycodec08.svg"
   width="1541.64"
   height="1874.38"
   inkscape:version="1.2.2 (b0a8486541, 2022-12-01)"
   xml:space="preserve"
   xmlns:inkscape="http://www.inkscape.org/namespaces/inkscape"
   xmlns:sodipodi="http://sodipodi.sourceforge.net/DTD/sodipodi-0.dtd"
   xmlns="http://www.w3.org/2000/svg"
   xmlns:svg="http://www.w3.org/2000/svg"><sodipodi:namedview
     id="namedview134"
     pagecolor="#505050"
     bordercolor="#ffffff"
     borderopacity="1"
     inkscape:showpageshadow="0"
     inkscape:pageopacity="0"
     inkscape:pagecheckerboard="1"
     inkscape:deskcolor="#505050"
     showgrid="false"
     inkscape:zoom="0.25000001"
     inkscape:cx="1939.9999"
     inkscape:cy="1042"
     inkscape:window-width="2512"
     inkscape:window-height="1011"
     inkscape:window-x="0"
     inkscape:window-y="0"
     inkscape:window-maximized="1"
     inkscape:current-layer="svg132" /><defs
     id="defs4"><linearGradient
       id="linearGradient4710"
       inkscape:swatch="solid"><stop
         style="stop-color:#e0ff00;stop-opacity:1;"
         offset="0"
         id="stop4708" /></linearGradient><style
       id="style2">.cls-1{fill:#dda90a;}.cls-2{fill:#932229;}.cls-3{fill:#dca80a;}.cls-4{fill:#020201;}.cls-5{fill:#df1818;}.cls-6{fill:#e33e28;}.cls-7{fill:#b41d1b;}.cls-8{fill:#922229;}.cls-9{fill:#902229;}.cls-10{fill:#fffefe;}.cls-11{fill:#fff;}</style></defs><rect
     style="fill:#0050bb;fill-opacity:1;stroke:#ff7a24;stroke-width:0.974844"
     id="rect561"
     width="1572.2126"
     height="1912.0876"
     x="-7.3095016"
     y="-17.262577" /><g
     id="g468"
     transform="matrix(0.43543578,0,0,0.43543578,433.33403,314.1864)"><path
       class="cls-5"
       d="m 1385.9773,1397.8161 a 289.60756,289.60756 0 0 1 -101.0997,7.1797 314.73636,314.73636 0 0 1 -61.2775,-13.107 c -7.3467,-2.4211 -14.7768,-5.0926 -22.1234,-8.3485 l -7.5136,-3.0889 v 0 A 471.10274,471.10274 0 0 1 1048.3662,1280.27 v 0 a 862.56134,862.56134 0 0 1 -79.81109,-89.7457 c -2.25408,-2.922 -152.86002,-251.45525 -171.64403,-294.44976 0,0 0,0 0,0 -1.50272,-3.58983 -2.17058,-5.67694 -1.66969,-6.09436 -9.85116,-23.6261 -19.8693,-47.2522 -29.55349,-70.96178 -40.99086,-100.68225 -76.63871,-203.20116 -107.69493,-307.30625 -6.4283,-21.70596 -12.9401,-43.41192 -19.3684,-65.03438 A 179.8255,179.8255 0 0 1 588.53389,377.46915 264.56222,264.56222 0 0 1 569.7499,295.82136 C 399.0242,397.50542 297.34014,544.02063 267.70317,740.37606 a 193.34998,193.34998 0 0 1 -45.99994,-91.24852 250.45336,250.45336 0 0 0 -37.40103,45.58252 c -57.01988,88.4935 -78.80932,187.50607 -86.406402,290.69285 -1.335753,18.28309 -1.502722,36.73319 -2.25408,56.93639 C 68.926694,1008.9455 56.570996,970.29222 40.875919,931.13802 20.672682,1007.1924 11.238939,1081.4101 19.169961,1157.8818 a 486.88131,486.88131 0 0 0 83.484449,227.0777 c 52.51172,76.9727 121.72032,136.7475 197.27375,189.7602 a 781.91535,781.91535 0 0 0 139.50252,64.3665 957.56663,957.56663 0 0 0 189.42622,47.2522 c 22.95822,3.3394 46.1669,5.343 69.37556,7.0127 20.62066,1.5862 41.24134,1.1688 61.86199,1.5027 a 781.08052,781.08052 0 0 0 175.31735,-18.4501 835.84631,835.84631 0 0 0 203.9524,-71.7966 991.96223,991.96223 0 0 0 193.0995,-127.3138 c 33.8947,-28.6352 66.7877,-58.4391 97.5934,-90.0797 2.0037,-2.0871 3.7569,-4.5082 5.5934,-6.6787 v 0 c -16.2794,5.0925 -32.3919,12.94 -49.6732,17.2812 z m -922.08568,36.4828 h -0.50092 z m 4.75861,2.8384 c 0,0 -0.75136,0 -0.75136,0 a 8.348445,8.348445 0 0 1 0.66788,-1.1688 l 1.25226,0.9184 a 4.1742226,4.1742226 0 0 1 -1.16878,0.2504 z"
       id="path77-6"
       style="fill:#00357a;fill-opacity:1;stroke-width:8.34844" /><path
       class="cls-6"
       d="m 1448.7576,1370.4332 c -2.3376,4.1743 -7.2631,5.0926 -10.352,8.3485 l -1.9202,1.9201 v 0 h -0.5844 v 0 c -16.6968,5.0926 -32.7259,12.9401 -50.0906,17.2813 a 289.60756,289.60756 0 0 1 -101.0997,7.1796 314.73636,314.73636 0 0 1 -61.2776,-13.107 c -7.4301,-2.4211 -14.7767,-5.0925 -22.1234,-8.3484 l -7.5136,-3.089 A 472.27154,472.27154 0 0 1 1048.1992,1280.437 h -0.4173 a 862.56134,862.56134 0 0 1 -79.22679,-89.9127 c -2.25408,-2.922 -152.86002,-251.45525 -171.64403,-294.44976 0,0 0,0 0,0 -0.83483,-3.92375 -1.25225,-6.01086 -1.25225,-6.01086 -9.85117,-23.6261 -19.8693,-47.2522 -29.55351,-70.9618 Q 704.66076,668.07853 658.41039,511.79562 q -9.6842,-32.55893 -19.45188,-65.03438 c -1.00181,-25.96366 -2.75499,-51.92731 -3.00544,-77.97447 A 520.77599,520.77599 0 0 1 659.16175,197.3932 347.87971,347.87971 0 0 1 804.09075,12.057718 c 1.41924,-0.918329 2.83846,-1.669689 5.25952,-3.0054403 -2.58803,25.0453343 -5.343,50.0906703 -5.67694,74.2176763 a 654.26763,654.26763 0 0 0 9.1833,131.404516 176.82007,176.82007 0 0 0 77.30658,118.79838 c 21.45552,14.69326 42.32661,30.22136 63.03077,45.99991 a 213.46974,213.46974 0 0 1 71.79662,86.15597 c 0,-43.91282 3.1724,-87.40822 16.6968,-129.31741 a 268.31903,268.31903 0 0 1 71.9636,-109.61509 582.97192,582.97192 0 0 0 -4.0072,87.74215 c 2.7549,62.78031 25.0453,115.70945 75.136,156.03245 23.8766,19.28491 33.3937,46.66779 38.9038,75.63692 a 390.95769,390.95769 0 0 1 4.8421,101.60057 26.881993,26.881993 0 0 0 0.8348,8.76585 c 20.5372,-41.74221 35.9818,-86.99079 83.067,-108.52978 1.3357,3.00544 -0.6679,5.42649 -1.5862,7.93103 a 661.86471,661.86471 0 0 0 -35.8148,136.83101 c -7.3466,59.19047 -3.6734,116.87823 29.136,168.72207 a 169.64041,169.64041 0 0 0 34.2287,39.57163 c -2.588,-53.59701 0.5844,-105.35738 -9.4338,-156.70031 86.2395,104.85646 125.2267,228.74738 146.2648,362.57298 a 361.48767,361.48767 0 0 0 42.5771,-103.3538 c 13.107,129.067 -6.5953,251.9561 -69.0417,366.9142 z"
       id="path79-7"
       style="fill:#0060e0;fill-opacity:1;stroke-width:8.34844" /><path
       class="cls-2"
       d="m 1438.3221,1378.6982 c 3.089,-3.2559 8.3485,-4.1742 10.4355,-8.3485 a 59.774866,59.774866 0 0 0 30.8893,-15.0271 c 3.1724,-2.4211 6.1779,-5.0091 10.2686,-8.3485 a 40.740413,40.740413 0 0 1 -6.5118,17.6987 719.71944,719.71944 0 0 1 -85.2376,124.3918 1109.3414,1109.3414 0 0 1 -297.6221,256.8817 836.09677,836.09677 0 0 1 -310.97955,109.0307 861.05862,861.05862 0 0 1 -212.38444,4.1742 c -133.57511,-14.7768 -256.79816,-57.8547 -365.41143,-138.8346 -4.2577,-3.1724 -8.34844,-7.0127 -11.93827,-10.5191 l 0.83484,-1.0853 a 531.12807,531.12807 0 0 0 73.71677,17.3648 565.02275,565.02275 0 0 0 63.19773,5.0091 28.551682,28.551682 0 0 0 -13.3575,-7.7642 653.68324,653.68324 0 0 1 -140.00343,-78.5588 373.92683,373.92683 0 0 1 -125.226675,-166.5515 60.526226,60.526226 0 0 1 -2.421049,-7.5136 c 0,-0.5008 0,-1.2522 0.751358,-2.254 a 110.53341,110.53341 0 0 1 20.871113,13.274 568.77955,568.77955 0 0 0 213.636693,94.0869 c 3.00544,0.5844 6.26134,3.1724 8.93283,-0.7513 a 782.33277,782.33277 0 0 0 139.50252,64.3666 954.47772,954.47772 0 0 0 189.42623,47.1686 c 22.87474,3.4229 46.08342,5.343 69.29209,7.0962 20.70415,1.5028 41.24131,1.0853 61.94547,1.5028 a 781.16399,781.16399 0 0 0 175.31733,-18.5336 833.59222,833.59222 0 0 0 203.95247,-71.7966 985.11651,985.11651 0 0 0 193.0161,-127.3138 q 50.9255,-42.8276 97.6768,-90.0797 a 88.159578,88.159578 0 0 0 5.6769,-6.8458 v 0 z"
       id="path81-5"
       style="fill:#00347a;fill-opacity:1;stroke-width:8.34844" /><path
       class="cls-6"
       d="m 1436.068,1380.5349 v 0 c -16.6969,5.176 -32.3085,12.94 -49.4228,17.1978 a 289.85801,289.85801 0 0 1 -101.5171,7.0961 289.60756,289.60756 0 0 0 101.0996,-7.1796 c 17.0309,-4.1743 33.1434,-12.0218 49.8403,-17.1143 z"
       id="path83-3"
       style="fill:#578fca;fill-opacity:1;stroke-width:8.34844" /><path
       class="cls-7"
       d="m 199.83031,1709.9645 -2.1706,-1.6697 c 1.25227,-1.1688 2.1706,-0.5844 3.00544,0.6679 z"
       id="path85-5"
       style="fill:#578fca;fill-opacity:1;stroke-width:8.34844" /><path
       class="cls-8"
       d="m 317.37641,1458.0919 a 190.42803,190.42803 0 0 1 -48.00356,-31.9745 448.56194,448.56194 0 0 1 -142.42447,-210.047 511.34225,511.34225 0 0 1 -18.28309,-85.9055 c -0.75136,-6.0108 -1.41924,-12.4391 5.67694,-15.5281 7.09618,-3.0889 13.27403,1.2523 14.19235,10.2686 a 518.10449,518.10449 0 0 0 15.36115,89.5789 428.27523,428.27523 0 0 0 87.24124,163.88 467.51291,467.51291 0 0 0 83.48446,77.39 c 1.00181,0.6679 1.92013,1.5863 2.75498,2.3376 z"
       id="path87-6"
       style="fill:#ffffff;fill-opacity:1;stroke-width:8.34844" /><path
       class="cls-8"
       d="m 460.13481,1433.2135 a 221.81818,221.81818 0 0 1 -36.73314,-19.7023 335.85793,335.85793 0 0 1 -145.0125,-190.762 50.09067,50.09067 0 0 1 -1.66969,-5.7604 c -1.0018,-6.3448 0.66788,-11.6878 7.5136,-13.1906 6.84573,-1.5027 10.7695,2.3376 12.27222,8.3485 a 359.56754,359.56754 0 0 0 19.45188,59.7749 326.17375,326.17375 0 0 0 134.99436,152.9435 c 2.83847,1.9201 7.09616,2.6715 9.18327,8.3484 z"
       id="path89-2"
       style="fill:#ffffff;fill-opacity:1;stroke-width:8.34844" /><path
       class="cls-2"
       d="M 382.57777,827.28337 A 200.36268,200.36268 0 0 1 373.14401,766.59018 298.28993,298.28993 0 0 1 419.81183,587.683 c 5.4265,-8.34846 11.68782,-16.19599 17.61522,-24.29399 4.25771,-5.7604 10.10163,-9.01632 16.11249,-3.92376 6.01088,5.09254 4.09074,11.77132 -1.08528,17.44826 a 270.5731,270.5731 0 0 0 -66.78758,131.32103 330.59841,330.59841 0 0 0 -3.92375,110.28295 c 0.83484,2.92196 0.66786,5.92742 0.83484,8.76588 z"
       id="path91-9"
       style="fill:#ffffff;fill-opacity:1;stroke-width:8.34844" /><path
       class="cls-2"
       d="m 683.78966,1600.0154 c -82.14869,8.9329 -153.36093,-17.1978 -217.05957,-67.4554 -5.84391,-4.5916 -8.34845,-10.352 -2.6715,-16.1959 5.67694,-5.8439 11.2704,-3.7568 16.69688,1.2522 a 300.96144,300.96144 0 0 0 103.35376,65.1179 280.92518,280.92518 0 0 0 99.68043,17.2812 z"
       id="path93-1"
       style="fill:#ffffff;fill-opacity:1;stroke-width:8.34844" /><path
       class="cls-8"
       d="m 240.23677,1044.2594 a 259.55317,259.55317 0 0 1 -31.39014,-79.47714 330.43144,330.43144 0 0 1 -8.34845,-89.24488 c 0,-7.34663 1.0853,-13.94191 10.35207,-13.77493 9.26678,0.16703 10.60253,7.34663 9.60072,14.35932 a 321.58211,321.58211 0 0 0 20.20325,163.71303 21.20505,21.20505 0 0 1 0.58439,3.9238 z"
       id="path95-2"
       style="fill:#ffffff;fill-opacity:1;stroke-width:8.34844" /><path
       class="cls-8"
       d="m 368.55238,1018.2123 a 141.92356,141.92356 0 0 1 -43.99631,-86.23944 9.9346496,9.9346496 0 0 1 9.1833,-12.94008 9.5172272,9.5172272 0 0 1 10.76949,10.51903 147.0996,147.0996 0 0 0 23.96002,85.15409 8.348445,8.348445 0 0 1 0.66789,2.922 z"
       id="path97-7"
       style="fill:#ffffff;fill-opacity:1;stroke-width:8.34844" /><path
       class="cls-2"
       d="m 1149.2989,1508.266 a 7.3466315,7.3466315 0 0 1 6.3448,-3.8402 l 0.5844,0.5844 a 8.7658672,8.7658672 0 0 1 -5.9274,4.1742 z"
       id="path99-0"
       style="fill:#578fca;fill-opacity:1;stroke-width:8.34844" /><path
       class="cls-8"
       d="m 468.65023,1435.2171 1.25227,1.0019 a 4.5916446,4.5916446 0 0 1 -1.25227,0.6679 c 0,0 -0.66787,0 -0.66787,-0.4175 a 9.099805,9.099805 0 0 1 0.66787,-1.2523 z"
       id="path101-9"
       style="fill:#578fca;fill-opacity:1;stroke-width:8.34844" /><path
       class="cls-8"
       d="m 240.82116,1043.7586 1.25228,2.254 c 0,0 0,0.4175 -0.66787,0.5844 -0.66788,0.1671 -0.75135,-1.5027 -1.1688,-2.3376 z"
       id="path103-3"
       style="fill:#578fca;fill-opacity:1;stroke-width:8.34844" /><polygon
       class="cls-8"
       points="139.56,237.01 139.49,236.98 139.56,236.96 "
       id="polygon105-6"
       style="fill:#578fca;fill-opacity:1"
       transform="matrix(8.348445,0,0,8.348445,-701.13388,-544.70007)" /><path
       class="cls-8"
       d="m 370.72296,1019.9655 0.91834,0.9183 h -0.58439 c 0,0 0,-0.5009 -0.41742,-0.7513 z"
       id="path107-0"
       style="fill:#578fca;fill-opacity:1;stroke-width:8.34844" /><path
       class="cls-8"
       d="m 369.13677,1017.6279 1.58619,2.3376 v 0 l -2.0871,-1.8366 z"
       id="path109-6"
       style="fill:#578fca;fill-opacity:1;stroke-width:8.34844" /><path
       class="cls-2"
       d="m 1158.3152,1503.1735 -2.0871,1.8367 -0.5844,-0.5844 2.1706,-1.7532 z"
       id="path111-2"
       style="fill:#578fca;fill-opacity:1;stroke-width:8.34844" /><path
       class="cls-2"
       d="m 1157.8143,1502.6726 1.2523,-0.7514 -0.7514,1.2523 z"
       id="path113-6"
       style="fill:#578fca;fill-opacity:1;stroke-width:8.34844" /><path
       class="cls-5"
       d="m 1438.3221,1378.6982 -1.9201,1.8367 z"
       id="path115-1"
       style="fill:#578fca;fill-opacity:1;stroke-width:8.34844" /><path
       class="cls-9"
       d="m 850.42462,1773.4127 a 374.01034,374.01034 0 0 1 -66.11967,13.8584 709.03343,709.03343 0 0 1 -109.53162,6.9292 924.75724,924.75724 0 0 1 -100.76574,-4.4247 c -38.31934,-4.5916 -76.63871,-8.3484 -114.62414,-16.029 -7.76405,-1.5027 -11.7713,-4.9256 -10.35206,-12.6062 1.41923,-7.6805 8.34845,-8.3484 14.86023,-7.0127 a 1171.0363,1171.0363 0 0 0 125.72758,22.8748 1043.5556,1043.5556 0 0 0 150.27202,6.5117 604.00999,604.00999 0 0 0 103.43723,-9.6841 45.665994,45.665994 0 0 1 7.09617,-0.4174 z"
       id="path117-8"
       style="fill:#fffefe;fill-opacity:1;stroke-width:8.34844" /><path
       class="cls-9"
       d="m 405.61947,1686.5053 a 218.06137,218.06137 0 0 1 -52.76216,-7.9309 339.69822,339.69822 0 0 1 -129.48439,-60.2758 204.70387,204.70387 0 0 1 -20.20324,-17.8657 c -4.67513,-4.6751 -7.93102,-10.7695 -1.66969,-16.6969 6.26134,-5.9274 10.85298,-2.5045 15.52811,2.5046 51.00899,55.6005 116.04338,84.5697 188.59137,100.2647 z"
       id="path119-7"
       style="fill:#fffefe;fill-opacity:1;stroke-width:8.34844" /><path
       class="cls-2"
       d="m 1150.3007,1509.0174 a 263.81086,263.81086 0 0 1 -68.2068,37.0671 523.03008,523.03008 0 0 1 -148.26832,34.813 843.86082,843.86082 0 0 1 -84.73671,3.5064 65.535294,65.535294 0 0 1 -7.01269,0 c -6.84573,-0.7514 -13.02359,-3.2559 -12.3557,-11.3539 0.66787,-8.098 6.4283,-10.2686 13.69144,-9.7677 16.69689,1.1688 32.55894,3.089 48.8384,3.2559 70.12694,0 138.83468,-8.3484 204.70378,-33.3938 18.0327,-7.0127 34.8966,-16.6969 52.3448,-25.0453 z"
       id="path121-9"
       style="fill:#ffffff;fill-opacity:1;stroke-width:8.34844" /><path
       class="cls-10"
       d="m 946.34826,1041.5045 c -4.25771,-2.6715 -6.26134,-1.5862 -8.34846,2.1706 -7.43011,11.1869 -15.11069,22.1234 -23.45913,34.3121 -20.37019,-36.0653 -39.82206,-70.6279 -59.35745,-105.10695 -1.25225,-2.17061 -2.17058,-4.17422 0.41745,-6.01088 l 29.9709,-20.70416 a 77.306599,77.306599 0 0 1 1.50273,12.68964 c -0.58439,9.09982 3.33937,11.18693 12.10523,11.01996 38.40285,-0.50091 76.8057,0 115.20847,0 h 19.5354 l -41.74218,57.43729 c 18.95088,2.4211 36.39918,4.2578 53.76398,6.8458 6.9292,1.0017 8.3484,-0.9184 7.764,-7.5971 -3.2559,-35.89836 -7.2631,-71.7132 -8.3484,-107.695 a 81.98173,81.98173 0 0 0 -22.2069,-50.9255 291.19376,291.19376 0 0 0 -91.83284,-69.45908 16.69689,16.69689 0 0 0 -21.03809,1.83666 c -37.81845,30.05441 -76.05433,59.60789 -114.20672,89.41185 l -19.53536,16.1125 c -37.48453,-31.55712 -77.13963,-62.19591 -115.95991,-91.8329 -8.93284,-6.84572 -17.1978,-18.53355 -27.46638,-18.61702 -10.26858,-0.0834 -20.37021,8.76586 -30.13788,14.35932 a 293.61482,293.61482 0 0 0 -97.76029,82.73308 29.052588,29.052588 0 0 0 -5.59347,17.53174 c 0,38.73679 -0.41742,77.47358 0,116.12685 a 15.361139,15.361139 0 0 1 -6.76225,14.1924 936.44506,936.44506 0 0 0 -76.97265,63.7821 14.693263,14.693263 0 0 0 -6.67876,11.6044 142.50795,142.50795 0 0 0 17.19781,72.047 c 23.96004,40.8239 62.44636,58.4391 107.11053,64.7839 8.34844,1.1688 8.34844,3.0055 4.50817,9.1834 -14.10886,24.5444 -27.80033,49.3393 -41.74224,74.0507 -1.08527,2.0871 -3.75677,3.9237 -2.17057,6.9292 h 104.77297 c -1.0853,-2.8385 -1.83666,-5.2595 -2.83847,-7.6806 -10.51905,-25.0453 -19.53535,-50.0906 -31.89106,-74.3012 -9.43375,-18.0326 -8.84934,-31.1397 7.17966,-44.2467 a 227.16118,227.16118 0 0 0 22.95823,-25.0453 l 15.0272,-16.6969 a 15.194169,15.194169 0 0 1 -2.33756,10.853 c -7.09619,16.6968 -14.19235,33.3937 -21.62246,49.3393 a 11.520854,11.520854 0 0 0 1.16877,13.6079 c 18.95096,25.0453 37.56799,50.0907 56.10154,75.136 2.83847,3.8403 4.75863,5.0091 9.43374,2.2541 q 52.92915,-32.225 106.44267,-63.5316 a 9.6007116,9.6007116 0 0 0 5.09256,-9.6843 417.42224,417.42224 0 0 1 0,-49.0053 c 1.92014,-20.1198 -7.68058,-33.3938 -21.37201,-45.7495 -22.03989,-19.3684 -49.17235,-26.0472 -77.22312,-29.3865 -8.84935,-1.0854 -8.34844,-4.0073 -6.17785,-10.6861 7.76405,-20.7876 24.21049,-31.9745 43.74585,-39.655 a 228.91437,228.91437 0 0 1 73.0489,-12.2723 c 26.63154,1.3357 55.01625,3.2559 79.89461,14.2759 a 66.036199,66.036199 0 0 1 38.82028,37.9854 c 2.25406,6.0943 2.83847,10.2686 -5.84391,10.1017 a 66.286654,66.286654 0 0 0 -13.85844,2.087 c -27.2994,5.1761 -52.84564,14.0254 -71.96358,35.6478 a 44.580697,44.580697 0 0 0 -13.35752,34.1453 475.86137,475.86137 0 0 1 0,50.0906 13.107059,13.107059 0 0 0 7.51361,13.441 c 30.80576,17.9492 61.27758,36.3992 91.83287,54.5988 17.86569,10.6861 35.89833,21.2886 55.09976,32.6425 0,-6.5954 0,-11.5209 0,-16.6969 q -1.33575,-65.9528 -2.6715,-132.0724 c -0.50092,-21.8729 -0.50092,-21.8729 22.29035,-22.3739 a 6.7622404,6.7622404 0 0 1 2.588,-1.2522 l 120.96901,-16.6969 38.1523,-5.5935 c -60.9436,-38.9037 -119.8837,-76.6387 -178.74014,-114.7911 z M 691.55371,983.06533 c -18.61702,30.72237 -38.0689,60.94367 -58.43911,92.83477 -9.43374,-16.6969 -18.11613,-30.8892 -26.21413,-45.7495 a 10.268587,10.268587 0 0 0 -10.93644,-6.1778 c -12.9401,0 -27.71684,4.4247 -38.31938,-1.5027 -10.60252,-5.9275 -16.11248,-19.0345 -23.79306,-29.13616 -5.76042,-7.51361 -11.43736,-15.19418 -17.36477,-23.04172 a 20.537175,20.537175 0 0 1 11.52086,-1.41924 c 41.74222,0 82.81657,0 124.22485,0 8.34845,0 12.3557,-1.75317 10.853,-10.85297 a 88.910939,88.910939 0 0 1 0,-12.68963 132.40634,132.40634 0 0 1 27.96727,15.19416 18.867485,18.867485 0 0 1 0.50091,22.54079 z"
       id="path124-2"
       style="fill:#fffefe;stroke-width:8.34844" /><path
       class="cls-11"
       d="m 909.61509,1440.1428 a 43.829337,43.829337 0 0 1 -14.69325,20.9545 14.025387,14.025387 0 0 1 -22.45732,-2.6715 109.19766,109.19766 0 0 1 -18.95097,-37.0671 c -0.66788,-1.8366 -0.58439,-4.0072 -3.42286,-5.0925 -7.84754,43.078 -27.21593,78.8093 -68.79118,97.1759 a 38.48633,38.48633 0 0 1 -5.76044,2.1706 30.889247,30.889247 0 0 1 -3.33937,-1.3357 c -35.64787,-14.9438 -55.01625,-43.8294 -64.95091,-80.0616 -1.66969,-6.0944 -3.00544,-12.2723 -4.75861,-19.6189 -3.33939,8.3484 -6.09436,15.6116 -9.0998,22.7913 a 79.978104,79.978104 0 0 1 -11.60436,19.7857 c -8.34844,10.5191 -15.94552,11.0201 -26.04713,1.7532 a 55.517159,55.517159 0 0 1 -15.27766,-28.6351 190.92894,190.92894 0 0 1 -5.25952,-55.5172 c 0,-3.0054 0,-5.6769 3.58983,-7.4301 l 136.33011,-72.8819 c 1.5862,-2.2541 2.83847,-1.0019 4.09074,0 q 66.78755,35.9818 133.57512,71.7131 a 8.348445,8.348445 0 0 1 5.09254,7.6805 174.81643,174.81643 0 0 1 -8.26496,66.2868 z"
       id="path126-0"
       style="fill:#ffffff;stroke-width:8.34844" /></g><path
     style="fill:#ffffff;stroke-width:0.761411"
     d="m 1171.8738,1574.9726 c -1.3585,-0.306 -3.0391,-1.0282 -3.7347,-1.6052 -1.7017,-1.4112 -3.3131,-5.4274 -3.3131,-8.2578 0,-2.1858 0.162,-2.3086 3.0457,-2.3086 2.8599,0 3.0456,0.136 3.0456,2.2298 0,2.1895 1.6581,4.6229 3.1501,4.6229 2.161,0 3.7026,-1.7072 3.7026,-4.1004 0,-2.7164 -3.422,-8.1765 -5.9837,-9.5475 -0.8047,-0.4306 -2.4908,-2.3345 -3.7469,-4.231 -5.6701,-8.5602 -2.8397,-17.7035 5.7084,-18.4399 6.0944,-0.5251 10.1135,3.0346 10.1135,8.9575 0,2.0935 -0.1894,2.2347 -2.9974,2.2347 -2.8251,0 -3.0111,-0.1422 -3.236,-2.4746 -0.202,-2.0951 -0.5762,-2.5131 -2.4402,-2.7259 -2.5846,-0.295 -3.4811,0.8019 -3.4973,4.2789 -0.01,2.0381 0.8955,3.4707 4.8593,7.6911 6.0225,6.4124 7.3116,8.8434 7.3116,13.7886 0,7.838 -4.5229,11.5684 -11.9875,9.8874 z m 29.5713,-0.1978 c -1.4265,-0.5134 -3.311,-1.8998 -4.1878,-3.0811 -1.4931,-2.0115 -1.6095,-3.2786 -1.8351,-19.987 l -0.241,-17.8393 h 3.4769 3.477 v 17.0384 c 0,14.1504 0.192,17.1979 1.1322,17.9782 1.6142,1.3397 4.6919,0.3429 5.2385,-1.6966 0.2537,-0.9468 0.4659,-8.8312 0.4716,-17.5208 l 0.011,-15.7992 h 3.107 3.1069 l -0.2516,17.7383 c -0.2177,15.3363 -0.4322,18.0135 -1.5842,19.7699 -2.3414,3.5698 -7.4214,5.0183 -11.9209,3.3992 z m -95.8647,-2.6466 c 0.1977,-2.3885 0.5475,-2.8983 2.1398,-3.1185 3.7612,-0.5203 3.8071,-0.7432 3.8071,-18.4846 v -16.6577 h 3.4778 3.4778 l -0.2523,17.3221 c -0.2744,18.8357 -0.6464,20.701 -4.5295,22.709 -1.154,0.5967 -3.5064,1.085 -5.2276,1.085 h -3.1294 z m 24.9821,-0.1903 v -3.0456 h 3.0457 3.0456 v 3.0456 3.0456 h -3.0456 -3.0457 z m 96.6992,-17.5125 v -20.558 h 4.3781 l 4.3781,2e-4 2.251,14.1955 c 1.4826,9.349 2.4223,13.5553 2.7526,12.3205 0.2758,-1.0313 1.302,-7.4194 2.2805,-14.1957 l 1.779,-12.3205 h 4.4151 4.4149 v 20.558 20.5581 h -3.0456 -3.0456 l -0.086,-13.1343 -0.086,-13.1343 -2.0081,12.944 -2.0082,12.9439 -3.0707,0.2261 -3.0707,0.2261 -2.3606,-13.9315 -2.3607,-13.9315 -0.089,13.8958 -0.089,13.8957 h -2.665 -2.6649 z m 39.5933,0 v -20.558 h 3.0457 3.0456 v 20.558 20.5581 h -3.0456 -3.0457 z m 19.0353,0 v -20.558 h 6.5098 c 10.5891,0 12.9538,2.3137 12.399,12.1317 -0.242,4.2823 -0.6481,5.6773 -2.1042,7.2273 -1.5215,1.6194 -1.6184,1.9921 -0.6181,2.376 1.9253,0.7388 2.7607,4.066 3.0022,11.958 l 0.2273,7.4243 -3.236,-6e-4 -3.236,-6e-4 v -6.6832 c 0,-7.7929 -1.0421,-10.0678 -4.6117,-10.0678 h -2.241 v 8.3755 8.3755 h -3.0457 -3.0456 z m 11.3348,-2.9761 c 0.5807,-0.3677 1.2233,-2.4127 1.4281,-4.5445 0.4763,-4.957 -1.0956,-7.7076 -4.405,-7.7076 h -2.2666 v 6.472 6.472 l 2.0939,-0.011 c 1.1516,-0.01 2.5689,-0.3126 3.1496,-0.6802 z m 19.883,2.9761 v -20.558 h 8.7562 8.7563 v 2.6316 2.6315 l -5.5203,0.2237 -5.5202,0.2237 v 5.7106 5.7106 l 4.3781,0.2283 4.3781,0.2284 v 2.5889 2.589 l -4.3781,0.2283 -4.3781,0.2284 -0.2224,5.9009 -0.2223,5.901 h 5.7425 5.7427 v 3.0456 3.0456 h -8.7563 -8.7562 z m 46.4461,0 v -20.558 h 7.2213 c 6.9014,0 7.3317,0.098 9.708,2.2201 l 2.4866,2.2201 0.2357,14.4469 c 0.1895,11.6198 0.01,14.9903 -0.9244,17.2233 -1.5556,3.7232 -4.7868,5.0057 -12.6115,5.0057 h -6.1157 z m 12.9171,12.9941 c 0.4452,-0.8317 0.7883,-6.5583 0.7883,-13.1553 0,-13.4543 -0.6073,-15.3296 -4.832,-14.9194 l -2.4014,0.2331 -0.2068,14.6572 -0.2068,14.6572 h 3.0353 c 2.2216,0 3.2465,-0.3948 3.8234,-1.4728 z m 19.0621,-12.9941 v -20.558 h 3.0457 3.0456 v 20.558 20.5581 h -3.0456 -3.0457 z m 20.2865,0.5711 c 1.7861,-10.9929 3.2632,-20.244 3.2824,-20.5581 0.019,-0.3141 2.1926,-0.571 4.8299,-0.571 h 4.7951 l 2.9085,18.4642 c 1.5996,10.1553 3.0868,19.4284 3.3046,20.6069 0.3903,2.1106 0.346,2.1392 -2.9447,1.9036 -2.9231,-0.2093 -3.3676,-0.4774 -3.5541,-2.1428 -0.5997,-5.3558 -0.6666,-5.4257 -4.9506,-5.1785 -3.6014,0.2079 -3.9931,0.4074 -4.1863,2.1329 -0.5568,4.9722 -0.8148,5.3298 -3.8452,5.3298 h -2.8871 z m 10.9313,6.5628 c 0,-1.0076 -2.3565,-15.9803 -2.8005,-17.7936 -0.3148,-1.2856 -0.9149,0.9388 -1.8489,6.8527 -1.9048,12.0613 -1.9948,11.4212 1.6038,11.4212 1.6751,0 3.0456,-0.2161 3.0456,-0.4803 z m 18.2739,10.5621 c 0,-1.8407 2.0129,-7.6615 5.6402,-16.3102 7.8213,-18.6486 7.7131,-16.614 0.8831,-16.614 h -5.7619 v -2.6649 -2.6649 h 9.1369 9.137 v 2.7186 c 0,1.6625 -2.2448,8.0955 -5.779,16.5607 -3.1784,7.6131 -5.9562,14.2703 -6.1727,14.7938 -0.2961,0.7155 1.1383,0.9518 5.7789,0.9518 h 6.1728 v 3.0456 3.0456 h -9.5177 -9.5176 z m -971.28227,-31.7878 c 0.2461,-0.6414 11.598,-22.6144 25.2263,-48.8288 l 24.7788,-47.6625 -34.4686,-61.3084 c -18.9577,-33.7196 -34.5842,-61.6083 -34.7255,-61.9748 -0.1449,-0.3758 12.4666,-0.5794 28.9299,-0.4669 l 29.1867,0.1995 20.1717,37.1188 c 11.0945,20.4153 20.3638,37.1187 20.5984,37.1187 0.2346,0 8.1824,-16.7034 17.6618,-37.1187 l 17.2353,-37.1188 28.9839,-0.1994 c 15.94117,-0.1097 28.97987,0.062 28.97477,0.3807 -0.01,0.319 -25.8325,50.0908 -57.39457,110.6039 l -57.3855,110.0239 -29.1105,0.1995 c -25.8828,0.1773 -29.0608,0.07 -28.6629,-0.9667 z m -303.319,-70.7957 c -10.924,-2.4261 -20.2154,-7.274 -29.5047,-15.3944 l -4.7588,-4.1601 v 8.4399 8.4399 h -25.1265 -25.126598 v -122.9678 -122.9678 h 25.507298 25.5072 v 56.3583 56.3583 l 5.5174,-4.2035 c 6.7898,-5.1731 14.1602,-8.7999 22.6548,-11.1479 5.684,-1.5711 8.1408,-1.7892 20.1774,-1.7911 15.9136,0 19.1137,0.6617 31.2178,6.4806 19.9043,9.5686 34.4612,29.0203 39.646,52.977 1.8218,8.4175 1.8457,25.8601 0.048,34.9215 -1.5629,7.8771 -4.8322,16.7914 -8.6223,23.5101 -6.9322,12.2883 -18.302,23.2347 -30.4648,29.33 -9.392,4.7067 -16.8353,6.3617 -29.9209,6.6533 -8.354,0.1861 -13.2478,-0.059 -16.751,-0.8363 z m 7.7139,-42.6033 c 2.777,-0.5885 6.7764,-1.9454 8.8877,-3.0153 7.4472,-3.7738 14.1139,-12.5152 16.0935,-21.1019 1.1444,-4.964 0.9654,-14.2126 -0.3747,-19.359 -6.1146,-23.4817 -36.1006,-32.2997 -55.2673,-16.2524 -9.0751,7.5981 -13.1037,18.8915 -11.3396,31.7881 2.7487,20.0939 21.1781,32.3541 42.0004,27.9405 z m 150.7455,42.6035 c -14.2442,-3.2189 -23.4379,-8.053 -33.6663,-17.7018 -17.5986,-16.6017 -26.1371,-40.7369 -23.6009,-66.7108 2.7368,-28.0287 17.7797,-50.9319 40.7944,-62.1105 12.0129,-5.8349 15.2716,-6.5151 31.2343,-6.5186 11.8297,0 14.5912,0.2327 20.1774,1.7202 8.1054,2.1584 16.3237,6.2274 23.0065,11.3908 l 5.1657,3.9912 v -6.8541 -6.8541 l 25.3169,0.2007 25.3169,0.2006 0.1941,73.2858 0.1942,73.2857 h -25.1303 -25.1304 v -8.3951 -8.3951 l -6.1404,5.229 c -7.2007,6.1319 -15.5736,10.7957 -23.5546,13.1203 -7.459,2.1725 -26.7188,2.8012 -34.1775,1.1158 z m 36.8424,-42.2629 c 13.8028,-2.2575 24.849,-13.6049 27.0592,-27.7968 3.1272,-20.0805 -9.3772,-37.362 -29.0021,-40.0815 -17.4749,-2.4217 -33.4834,7.9737 -37.7148,24.4909 -1.5906,6.2081 -1.1604,17.7771 0.8485,22.824 6.1121,15.3549 21.3359,23.4214 38.8092,20.5634 z M 714.37,1469.8417 c -16.3771,-2.7395 -33.2548,-12.1025 -46.0228,-25.5314 -9.233,-9.711 -14.2028,-18.1467 -17.9842,-30.5263 -1.8721,-6.1288 -2.0449,-7.7799 -2.0558,-19.6355 -0.01,-11.0161 0.2381,-13.8512 1.6659,-19.0352 7.5748,-27.5019 31.5681,-50.2829 60.2908,-57.2446 4.5848,-1.1112 8.6377,-1.3709 20.5581,-1.3172 14.0498,0.063 15.3284,0.1935 23.7977,2.4232 8.6289,2.2717 18.058,6.2398 21.7629,9.1586 l 1.7794,1.4018 -8.5827,17.1857 -8.5828,17.1856 -4.2903,-2.1802 c -6.5379,-3.3223 -13.6276,-4.7223 -21.8358,-4.3119 -6.0377,0.3019 -7.778,0.7229 -12.7512,3.0847 -8.8848,4.2194 -14.9593,10.9466 -18.6966,20.7055 -2.4254,6.3336 -2.4682,16.9827 -0.096,23.854 5.2416,15.1812 17.8475,24.4956 33.1519,24.4956 6.3226,0 15.9413,-2.2199 21.0814,-4.8652 l 3.515,-1.8091 8.2868,17.1388 c 4.5578,9.4263 8.3741,17.3571 8.4807,17.624 0.4408,1.1037 -8.3647,5.4187 -16.1835,7.9303 -12.5991,4.0472 -19.4476,5.1106 -32.2536,5.0084 -6.1308,-0.049 -12.8967,-0.3818 -15.0355,-0.7396 z m 142.488,-0.3339 c -34.494,-5.594 -60.5433,-28.6634 -67.0387,-59.3697 -2.7457,-12.9796 -1.4309,-31.5487 3.0829,-43.5406 8.8666,-23.5565 32.6859,-42.4918 61.2683,-48.7058 9.862,-2.1441 36.6078,-1.952 45.7813,0.3287 31.83,7.9137 54.3324,28.6681 62.097,57.2736 2.0969,7.725 1.8783,29.4629 -0.3791,37.6898 -7.328,26.7073 -29.0067,46.9036 -58.5961,54.5893 -8.2311,2.1381 -10.1193,2.3398 -24.1573,2.5809 -10.8132,0.1857 -17.2084,-0.059 -22.0583,-0.8462 z m 25.7794,-42.2194 c 18.1942,-2.9796 30.2024,-20.3221 27.2447,-39.3473 -1.1933,-7.6755 -4.0781,-13.4511 -9.3655,-18.7504 -18.8353,-18.8776 -51.8366,-10 -57.7216,15.5275 -1.8931,8.2112 -0.5962,18.8096 3.1779,25.9706 6.672,12.6594 21.0302,19.1599 36.6645,16.5996 z m 153.9839,42.628 c -4.7115,-0.8506 -15.155,-4.2884 -19.1282,-6.2966 -16.1011,-8.138 -30.3588,-25.2449 -36.0073,-43.2026 -3.2051,-10.1897 -3.5864,-13.0781 -3.5685,-27.0301 0.014,-11.6022 0.2772,-14.7344 1.7092,-20.4111 3.6499,-14.4686 10.663,-26.8534 20.9103,-36.9271 9.5673,-9.405 17.8228,-14.3214 29.9002,-17.8065 5.4217,-1.5645 7.6398,-1.7523 20.1774,-1.708 13.056,0.046 14.5765,0.1998 20.7922,2.1032 9.6581,2.9574 20.3407,8.7986 24.4394,13.3634 0.7978,0.8885 1.74,1.6154 2.0939,1.6154 0.3538,0 0.6434,-25.355 0.6434,-56.3444 v -56.3444 h 25.1265 25.1266 v 122.9678 122.9678 h -25.1266 -25.1265 v -8.4575 -8.4575 l -4.6271,4.2838 c -7.5463,6.9865 -14.9809,11.17 -25.8293,14.5342 -4.8439,1.5021 -25.3996,2.2526 -31.5056,1.1502 z m 40.9978,-44.0961 c 8.4906,-2.9842 16.1876,-10.4195 19.5099,-18.8468 2.3849,-6.0492 2.5949,-19.9613 0.389,-25.769 -4.52,-11.9003 -14.6093,-19.8819 -27.5691,-21.8095 -10.9896,-1.6344 -21.025,1.6889 -28.9046,9.5723 -5.721,5.7238 -8.4355,11.1458 -9.6082,19.192 -1.6663,11.4325 1.7385,22.4878 9.2463,30.0224 4.7843,4.8014 10.6492,7.9584 16.7847,9.035 5.8538,1.0273 15.074,0.3884 20.152,-1.3964 z m 162.5866,44.3203 c -5.3307,-0.9025 -16.4668,-4.2399 -20.9888,-6.2903 -11.8018,-5.3512 -25.0396,-16.301 -32.7211,-27.0655 -4.1921,-5.8748 -9.733,-17.4516 -11.2959,-23.601 -4.2681,-16.7939 -2.2581,-38.028 4.9586,-52.3825 8.1563,-16.223 24.0158,-31.2114 40.7415,-38.5034 8.858,-3.8618 16.9116,-5.5293 28.864,-5.9764 25.9542,-0.971 45.3486,5.5868 61.1363,20.672 13.3796,12.7842 19.3501,27.7118 21.0569,52.6473 0.2602,3.8024 0.2435,7.8284 -0.037,8.9466 l -0.5103,2.0331 h -53.08 -53.0802 l 0.5982,4.9683 c 1.3936,11.5759 7.9692,19.0455 20.4339,23.2117 5.8345,1.9502 18.416,2.2097 24.8978,0.5136 5.0818,-1.3297 11.2273,-5.079 17.1963,-10.4913 l 4.7479,-4.3051 18.1034,9.054 c 20.6011,10.3033 19.2677,8.6072 13.0848,16.6422 -15.9969,20.7886 -38.8003,30.6191 -70.4009,30.3496 -6.491,-0.055 -12.6584,-0.2456 -13.7053,-0.4229 z m 41.5384,-101.3418 c -2.2344,-8.4704 -6.4242,-13.74 -13.7896,-17.3435 -6.3288,-3.0963 -16.3088,-3.5422 -23.9917,-1.0718 -8.882,2.856 -14.941,9.6203 -16.6076,18.5412 l -0.6583,3.5236 h 28.0049 28.005 z m 127.4947,100.3801 c -24.6195,-5.2656 -47.3073,-23.1467 -57.5803,-45.3812 -7.2468,-15.6848 -8.2238,-36.8604 -2.483,-53.8176 7.9526,-23.4905 30.5921,-44.3467 55.6633,-51.2788 13.5821,-3.7554 35.0782,-3.3419 49.9516,0.9607 7.0441,2.0378 16.1182,6.0539 19.0442,8.4288 l 1.7795,1.4443 -8.611,17.2421 -8.6108,17.2421 -3.2544,-1.9072 c -4.5282,-2.6537 -13.8829,-4.892 -20.4458,-4.892 -6.1465,0 -12.9094,1.7964 -18.0023,4.782 -5.0631,2.968 -11.7639,10.4984 -14.5206,16.3185 -2.3541,4.9699 -2.4474,5.5333 -2.4328,14.6858 0.013,8.1667 0.2669,10.1469 1.7885,13.9508 3.6055,9.0138 12.2843,17.7246 20.6579,20.7339 5.9839,2.1505 15.395,2.2977 23.2302,0.3633 3.765,-0.9295 8.2646,-2.4694 9.9991,-3.4219 l 3.1536,-1.7318 8.5628,17.4934 c 4.7774,9.7601 8.2418,17.7102 7.8366,17.9839 -6.3389,4.2813 -16.514,8.0695 -28.8587,10.744 -9.4979,2.0578 -27.3832,2.0855 -36.8676,0.057 z M 161.79453,1275.2415 c -0.2792,-0.2791 -0.5076,-12.9566 -0.5076,-28.1721 v -27.6646 h 456.4656 456.46567 v 28.1722 28.1722 H 618.26023 c -250.7769,0 -456.1865,-0.2284 -456.4657,-0.5077 z M 1173.2015,1247.577 v -28.1722 h 153.805 153.8049 v 28.1722 28.1722 h -153.8049 -153.805 z"
     id="path293" /></svg>
